<?xml version="1.0" encoding="UTF-8" standalone="no"?>
<!-- Created with Inkscape (http://www.inkscape.org/) -->

<svg
   width="208.24255mm"
   height="168.3683mm"
   viewBox="0 0 208.24255 168.3683"
   version="1.1"
   id="svg5"
   sodipodi:docname="vojvodina_map3.svg"
   inkscape:version="1.2.1 (9c6d41e410, 2022-07-14)"
   xmlns:inkscape="http://www.inkscape.org/namespaces/inkscape"
   xmlns:sodipodi="http://sodipodi.sourceforge.net/DTD/sodipodi-0.dtd"
   xmlns="http://www.w3.org/2000/svg"
   xmlns:svg="http://www.w3.org/2000/svg">
  <sodipodi:namedview
     id="namedview7"
     pagecolor="#ffffff"
     bordercolor="#666666"
     borderopacity="1.0"
     inkscape:pageshadow="2"
     inkscape:pageopacity="0.0"
     inkscape:pagecheckerboard="0"
     inkscape:document-units="px"
     showgrid="true"
     inkscape:zoom="10.869834"
     inkscape:cx="86.293863"
     inkscape:cy="189.33131"
     inkscape:window-width="2560"
     inkscape:window-height="1369"
     inkscape:window-x="1912"
     inkscape:window-y="-8"
     inkscape:window-maximized="1"
     inkscape:current-layer="layer1-8"
     inkscape:lockguides="false"
     showguides="true"
     inkscape:showpageshadow="2"
     inkscape:deskcolor="#d1d1d1">
    <inkscape:grid
       type="xygrid"
       id="grid1365" />
  </sodipodi:namedview>
  <defs
     id="defs2" />
  <g
     inkscape:label="Layer 1"
     inkscape:groupmode="layer"
     id="layer1"
     transform="translate(-1.3426376,-1.0339883)">
    <g
       id="layer1-8"
       transform="matrix(0.90001572,0,0,0.90001572,12.268578,-25.407111)">
      <g
         id="g205"
         transform="matrix(0.26458333,0,0,0.26458333,-36.310393,19.559251)"
         style="display:inline">
        <rect
           fill-rule="evenodd"
           clip-rule="evenodd"
           fill="#e0e0e0"
           width="901.64001"
           height="811.54199"
           id="rect11"
           x="0"
           y="0"
           style="display:none" />
        <path
           fill="#f5f5f5"
           d="M 179.9883,799.96963 179.6743,799.91463 C 177.6623,798.03963 180.4453,796.03763 181.2833,794.41763 182.2863,792.47963 181.3233,789.35763 183.1023,787.93563 185.6303,785.91463 186.6633,789.43763 188.7893,789.73763 190.5363,789.98463 193.4233,789.21163 195.2803,789.09163 197.3303,787.72363 195.2093,784.74063 197.2533,782.91263 200.0143,780.44163 206.4313,775.80163 202.7673,771.52763 201.8043,770.40363 199.3483,771.18463 198.7843,769.84563 198.0123,768.01363 203.0333,761.43963 204.4913,760.22363 207.6033,757.62763 212.4323,759.03863 213.3833,756.68563 214.2193,754.61963 209.7263,747.70663 213.0573,747.78663 222.9043,748.02163 216.0413,745.98563 217.9663,740.57663 218.5923,738.81763 221.3353,740.82963 220.6323,736.03163 221.7243,734.24563 223.0493,732.33663 222.2243,730.18763 223.5043,725.86163 226.1923,725.05463 229.3573,722.59963 230.9373,721.37463 225.1693,717.73763 228.2263,715.13463 230.1483,713.49863 236.8823,718.27363 236.5683,713.20663 236.2093,707.41163 239.1443,709.77863 240.8833,706.14663 240.7583,705.85463 244.7703,696.98163 245.6583,696.38663 246.1133,695.07463 243.7383,694.06163 244.7953,692.51163 245.4503,691.55263 248.2993,693.08863 249.5133,692.22563 252.0903,690.39363 247.8213,688.96063 247.5193,687.21463 L 249.5893,684.57663 C 247.4913,683.40363 244.7153,681.01963 245.2813,678.33063 245.9613,675.09863 248.9233,679.04663 250.2623,676.92563 251.3963,675.12863 248.7113,673.52763 249.1083,672.10363 249.5413,670.54863 251.9393,670.94563 252.5693,669.52063 252.8353,668.91863 252.0113,659.32663 252.0113,656.53763 252.0113,655.08563 254.7023,654.06763 254.1843,652.97763 253.5783,651.70163 250.5603,652.24063 251.5303,649.92463 252.1483,648.44863 256.2783,648.05363 257.1903,645.59863 256.6403,643.90263 259.6933,644.32163 260.5883,642.29463 261.3543,640.55963 258.1423,638.30663 257.5693,636.78063 256.5453,634.05363 260.2913,633.41163 260.1273,630.87863 260.0043,628.98663 257.2433,627.90063 257.7813,627.50163 L 258.4153,625.69063 254.9963,623.80063 247.42903,611.87963 261.2683,614.87963 C 264.44503,615.89618 266.0183,614.62963 266.5183,613.37963 267.0183,612.12963 267.5183,610.87963 268.2683,609.62963 269.0183,608.37963 270.0183,608.37963 271.2683,608.12963 272.5183,607.87963 272.7683,607.62963 274.2683,611.12963 275.7683,614.62963 277.0183,614.62963 278.5183,613.87963 280.0183,613.12963 283.0183,612.37963 281.2683,610.12963 279.5183,607.87963 277.7683,602.87963 277.0183,601.87963 276.2683,600.87963 275.7683,600.12963 278.7683,600.12963 281.7683,600.12963 283.0183,599.87963 284.2683,601.12963 285.5183,602.37963 288.0183,604.37963 289.2683,605.12963 290.5183,605.87963 291.5183,606.87963 291.5183,608.37963 291.5183,609.87963 293.7683,611.62963 293.7683,613.37963 293.7683,615.12963 293.2683,617.37963 296.5183,618.62963 299.7683,619.87963 301.7683,618.12963 302.2683,616.87963 302.7683,615.62963 304.5183,613.12963 304.5183,613.12963 304.5183,613.12963 307.0183,611.37963 308.0183,610.62963 309.0183,609.87963 311.0183,610.62963 312.2683,612.87963 313.5183,615.12963 315.5183,615.87963 316.5183,616.12963 317.5183,616.37963 322.5183,617.62963 323.7683,617.87963 331.95333,618.16599 338.56224,611.22032 346.7683,611.62963 L 366.0183,613.12963 380.5183,620.12963 375.0183,629.37963 365.7683,647.37963 363.5183,655.87963 C 362.68665,659.02142 361.7683,672.87963 361.7683,675.87963 361.7683,678.87963 361.689,686.37941 365.2683,688.37963 L 373.7683,693.12963 386.0183,692.37963 394.0183,689.88263 420.5183,712.12963 457.0183,716.12963 C 459.2683,717.62963 460.19666,719.29036 457.69666,721.54036 455.19666,723.79036 450.80919,728.67299 449.0183,728.87963 L 442.5183,729.62963 434.7683,730.12963 432.0183,735.12963 433.0183,739.12963 436.2683,742.87963 440.2683,744.12963 H 447.2683 L 451.2683,742.87963 466.7683,726.87963 C 468.7683,726.62963 473.0183,725.87963 473.0183,725.87963 473.0183,725.87963 475.5183,725.62963 476.0183,723.87963 476.5183,722.12963 479.2683,719.62963 479.2683,719.62963 479.2683,719.62963 480.0183,717.87963 482.2683,718.12963 484.5183,718.37963 487.0183,717.37963 487.0183,717.37963 487.0183,717.37963 493.0183,712.87963 495.2683,712.37963 497.5183,711.87963 498.0183,711.87963 499.5183,711.87963 501.0183,711.87963 501.7683,711.37963 502.0183,708.87963 502.2683,706.37963 501.2683,705.62963 500.2683,705.12963 499.2683,704.62963 497.0183,704.37963 495.0183,703.87963 493.0183,703.37963 492.5183,701.37963 495.2683,701.12963 498.0183,700.87963 499.2683,698.62963 499.2683,698.62963 L 502.5183,692.37963 C 502.5183,692.37963 503.2683,688.62963 500.7683,688.37963 498.2683,688.12963 496.2683,686.62963 500.0183,685.62963 503.7683,684.62963 503.7683,684.62963 504.5183,682.12963 505.2683,679.62963 506.0183,677.62963 504.5183,677.62963 503.0183,677.62963 496.7683,675.62963 496.7683,675.62963 496.7683,675.62963 495.0183,674.87963 495.0183,673.12963 495.0183,671.37963 494.5183,669.12963 495.7683,667.62963 L 509.5183,659.87963 512.2683,646.62963 513.7683,638.12963 518.0183,630.87963 519.0183,624.12963 C 515.63665,622.11581 523.52666,617.99741 524.2683,618.87963 525.5183,620.62963 528.2683,619.62963 529.2683,619.62963 530.2683,619.62963 531.7683,619.12963 533.0183,620.12963 534.2683,621.12963 535.7683,621.62963 535.0183,619.37963 534.2683,617.12963 535.5183,616.87963 537.2683,616.12963 539.0183,615.37963 539.5183,614.62963 540.0183,613.62963 540.5183,612.62963 540.5183,612.37963 541.7683,612.12963 543.0183,611.87963 543.5183,612.12963 544.2683,610.62963 545.0183,609.12963 546.2683,608.12963 548.0183,608.87963 549.7683,609.62963 551.7683,609.62963 553.0183,608.87963 554.2683,608.12963 557.2683,607.37963 556.5183,604.87963 555.7683,602.37963 555.16018,601.29054 554.0183,599.62963 L 551.2683,595.62963 553.0183,590.37963 559.5183,580.12963 C 564.09483,575.57963 573.0183,573.87302 573.0183,566.87963 573.0183,565.27885 573.5183,559.87963 572.7683,558.87963 572.0183,557.87963 570.7683,556.62963 571.0183,554.37963 571.0544,549.31733 567.66512,547.61474 564.0183,544.87963 L 560.0183,540.62963 V 535.87963 L 567.7683,538.12963 572.5183,542.12963 575.2683,540.12963 577.7683,536.37963 C 578.60035,535.13155 579.0183,534.87963 582.2683,534.87963 585.5183,534.87963 589.0183,534.87963 589.7683,536.12963 590.5183,537.37963 591.2683,539.62963 593.2683,539.37963 595.2683,539.12963 597.0183,539.37963 597.2683,542.12963 597.5183,544.87963 598.2683,546.12963 596.0183,546.62963 593.7683,547.12963 593.7683,548.37963 595.2683,549.37963 597.95178,552.25038 597.2683,555.06248 597.2683,558.87963 601.5894,563.04573 606.79822,566.06624 611.7683,569.37963 613.2683,570.37963 612.5183,572.12963 612.5183,573.37963 612.5183,574.62963 612.7683,575.62963 613.7683,576.37963 614.7683,577.12963 619.0183,581.62963 620.0183,582.62963 621.0183,583.62963 622.7683,584.37963 623.7683,583.62963 624.7683,582.87963 626.0183,582.37963 628.2683,584.12963 630.5183,585.87963 631.0183,587.87963 630.2683,589.37963 629.5183,590.87963 628.5183,593.12963 629.7683,594.12963 631.0183,595.12963 631.7683,595.62963 632.0183,597.12963 632.2683,598.62963 633.2683,599.12963 634.5183,600.37963 635.7683,601.62963 637.7683,603.87963 639.0183,603.87963 640.2683,603.87963 643.5183,605.12963 643.5183,605.12963 L 646.2683,607.37963 C 646.2683,607.37963 647.7683,608.87963 649.0183,608.62963 650.2683,608.37963 650.0183,608.12963 651.5183,608.37963 653.0183,608.62963 652.2683,608.37963 653.5183,609.62963 654.7683,610.87963 659.0183,614.12963 659.0183,615.37963 659.0183,616.62963 659.7683,616.87963 661.2683,617.87963 662.7683,618.87963 663.2683,620.37963 663.2683,621.62963 663.2683,622.87963 663.0183,624.37963 662.0183,625.12963 661.0183,625.87963 659.7683,626.62963 659.7683,627.62963 V 632.62963 L 657.7683,636.37963 654.7683,642.62963 C 654.7683,642.62963 654.0183,644.12963 652.5183,644.62963 651.0183,645.12963 650.2683,645.37963 650.2683,646.62963 650.2683,647.87963 650.5183,652.62963 650.5183,653.62963 650.5183,654.62963 651.7683,654.87963 652.7683,655.12963 653.7683,655.37963 656.0183,655.62963 657.0183,655.62963 658.0183,655.62963 659.0183,655.87963 659.0183,655.87963 V 658.87963 C 659.0183,658.87963 659.7683,659.87963 661.0183,660.37963 662.2683,660.87963 663.5183,661.12963 663.5183,663.37963 V 673.37963 C 663.5183,673.37963 661.5183,674.87963 661.2683,675.87963 661.0183,676.87963 659.7683,679.87963 661.0183,680.87963 662.2683,681.87963 664.2683,683.12963 663.2683,684.12963 662.2683,685.12963 661.5183,686.12963 663.2683,687.37963 665.0183,688.62963 665.0183,689.12963 666.2683,689.12963 667.5183,689.12963 668.0183,690.62963 668.2683,692.12963 668.5183,693.62963 670.5183,695.87963 672.0183,695.87963 673.5183,695.87963 676.2683,697.12963 677.7683,698.37963 679.2683,699.62963 680.5183,702.37963 680.7683,703.62963 681.0183,704.87963 682.5183,707.62963 682.5183,707.62963 L 683.0183,711.87963 C 683.0183,711.87963 686.0183,712.12963 686.2683,714.12963 686.5183,716.12963 687.0183,718.12963 688.2683,719.62963 689.5183,721.12963 692.7683,723.62963 692.7683,723.62963 L 695.7683,725.62963 C 695.7683,725.62963 699.7683,725.87963 701.0183,725.87963 702.2683,725.87963 704.0183,726.87963 704.5183,728.12963 705.0183,729.37963 705.5183,731.12963 706.5183,731.87963 707.5183,732.62963 710.7683,734.62963 712.2683,733.37963 713.7683,732.12963 714.7683,732.62963 716.2683,732.62963 717.7683,732.62963 719.5183,732.37963 720.7683,732.12963 722.0183,731.87963 722.73206,731.85789 724.0183,732.62963 L 726.5183,734.12963 733.7683,733.62963 753.2683,729.12963 756.2683,727.37963 760.2683,724.87963 C 761.34929,724.20401 762.5183,723.62963 763.0183,722.12963 763.5183,720.62963 762.7683,719.12963 764.0183,718.87963 765.2683,718.62963 765.5183,716.87963 766.5183,716.37963 767.5183,715.87963 770.7683,712.87963 772.7683,712.37963 774.7683,711.87963 776.7683,712.37963 777.2683,710.62963 777.7683,708.87963 778.0183,706.87963 780.5183,706.37963 783.0183,705.87963 785.5183,703.87963 785.5183,703.87963 L 798.0183,704.12963 807.0183,705.12963 811.2683,703.12963 C 812.54791,702.52746 814.2683,699.37963 815.5183,698.37963 816.7683,697.37963 818.52626,695.97528 820.0183,696.12963 L 827.2683,696.87963 875.5183,669.37963 C 879.0183,669.37963 880.0183,668.37963 881.7683,668.37963 883.5183,668.37963 885.0183,667.87963 886.2683,666.62963 887.5183,665.37963 887.7683,664.12963 888.5183,663.12963 889.2683,662.12963 892.7683,659.62963 892.7683,659.62963 L 893.7683,657.87963 H 896.5183 L 901.7683,656.37963 902.0493,656.23363 C 912.9913,662.59263 906.5863,671.87763 912.2243,674.52163 921.8533,679.03863 961.2333,672.06663 973.7973,683.00263 975.0323,684.07763 976.5093,687.19863 977.2733,688.70763 L 977.5033,689.15663 V 799.96763 H 179.9883 Z"
           id="path13"
           style="display:none" />
        <path
           fill-rule="evenodd"
           clip-rule="evenodd"
           fill="#fefee9"
           d="m 901.7683,656.38263 -5.25,1.5 h -2.75 l -1,1.75 c 0,0 -3.5,2.5 -4.25,3.5 -0.75,1 -1,2.25 -2.25,3.5 -1.25,1.25 -2.75,1.75 -4.5,1.75 -1.75,0 -2.75,1 -6.25,1 -3.5,0 -5.5,1.75 -5.5,1.75 0,0 -3.5,0.5 -4.75,0.5 -1.25,0 -2.75,0.25 -4.25,1.75 -1.5,1.5 -5.75,2.75 -7.5,2.75 -1.75,0 -3.25,0.75 -4.25,1.75 -1,1 -4.5,2.5 -5,3.75 -0.5,1.25 -3.25,1.75 -4.25,2.5 -1,0.75 -2.25,2 -1.25,3.5 1,1.5 -0.5,3.25 -2,3.5 -1.5,0.25 -2.5,3.75 -3,5.25 -0.5,1.5 -2,1.5 -3.75,1.25 -1.75,-0.25 -1,-1 -2.75,-0.75 -1.75,0.25 -5.75,-0.75 -7.25,-0.75 -1.5,0 -3.25,1.25 -4.5,2.25 -1.25,1 -3.25,3.75 -4.25,4.75 -1,1 -3.25,2 -4.25,2 -1,0 -4.25,0.5 -5.25,0.5 -1,0 -2,-0.25 -3.75,-1.5 -1.75,-1.25 -8,-0.75 -8,-0.75 l -4.5,0.5 c 0,0 -2.5,2 -5,2.5 -2.5,0.5 -2.75,2.5 -3.25,4.25 -0.5,1.75 -2.5,1.25 -4.5,1.75 -2,0.5 -5.25,3.5 -6.25,4 -1,0.5 -1.25,2.25 -2.5,2.5 -1.25,0.25 -0.5,1.75 -1,3.25 -0.5,1.5 -1.5,2.5 -2.75,2.75 -4.57968,2.95134 -8.08043,4.30452 -13.5,4.25 -2.25,0 -4.25,2.75 -6,3 -3.3195,0.23518 -9.23354,0.48729 -16.75,0.5 0,-1.5 -2,-0.75 -3.25,-0.5 -1.25,0.25 -3,0.5 -4.5,0.5 -1.5,0 -2.11067,1.24287 -4,0.75 -5.37764,-1.79247 -6.92548,-3.76735 -11.25,-7.5 l -5.25,-0.25 -9.5,-11.5 c -0.25,-2 -3.25,-2.25 -3.25,-2.25 l -0.5,-4.25 c 0,0 -1.5,-2.75 -1.75,-4 -0.25,-1.25 -1.5,-4 -3,-5.25 -1.5,-1.25 -4.25,-2.5 -5.75,-2.5 -5.94717,-2.60691 -6.5931,-10.87777 -11,-15 -1.25,-1 0,-4 0.25,-5 0.25,-1 2.25,-2.5 2.25,-2.5 v -10 c 0,-2.25 -1.25,-2.5 -2.5,-3 -1.25,-0.5 -0.92031,-1.55683 -0.92031,-1.55683 l -1.07969,-2.94317 c 0,0 -1,-0.25 -2,-0.25 -1,0 -3.25,-0.25 -4.25,-0.5 -1,-0.25 -2.25,-0.5 -2.25,-1.5 0,-1 -0.25,-5.75 -0.25,-7 0,-1.25 0.75,-1.5 2.25,-2 2.97589,-1.53986 3.88758,-5.41162 5.25,-8.25 l 0.97714,-3.69317 c 0.71737,-5.75049 0.2328,-11.54128 0.27284,-17.30683 0,-1.25 -4.25,-2.90888 -5.5,-4.15888 -1.25,-1.25 -1.40921,-1.96604 -2.90921,-2.21604 -1.5,-0.25 -0.34079,-0.62508 -1.59079,-0.37508 -1.25,0.25 -2.75,-1.25 -2.75,-1.25 -6.48731,-3.53952 -11.6586,-9.26216 -16.5,-13.25 -1.25,-1 -0.25,-3.25 0.5,-4.75 0.75,-1.5 0.25,-3.5 -2,-5.25 -2.25,-1.75 -3.5,-1.25 -4.5,-0.5 -1,0.75 -2.75,0 -3.75,-1 -1,-1 -5.25,-5.5 -6.25,-6.25 -1,-0.75 -1.25,-1.75 -1.25,-3 0,-1.25 0.75,-3 -0.75,-4 l -10.5,-7 -4,-3.5 v -4.5 c -0.43118,-5.19604 0.19985,-9.41798 0,-12.25 -0.25,-2.75 -2,-3 -4,-2.75 -2,0.25 -2.75,-2 -3.5,-3.25 -0.75,-1.25 -4.25,-1.25 -7.5,-1.25 -11.36646,1.57955 -16.34229,0.52306 -22.25,1 v 4.75 c 0,1 2.25,3.75 4,4.25 1.75,0.5 4.25,2.75 5,3.75 0.75,1 2.25,3.5 2,5.75 -0.25,2.25 1,3.5 1.75,4.5 0.0107,4.74256 -0.65194,10.21263 -1.5,14.5 -4.32031,3.96656 -7.34451,5.05493 -11.75,6.75 -3,1.25 -1.25,3 -0.25,5.25 1,2.25 -3,3.5 -6.25,5 -3.25,1.5 -1.75,3.25 -1.75,5.25 0,2 1,3 2.75,4 1.75,1 1.75,2.75 2.5,5.25 0.75,2.5 -2.25,3.25 -3.5,4 -1.25,0.75 -3.25,0.75 -5,0 -1.75,-0.75 -3,0.25 -3.75,1.75 -0.75,1.5 -1.25,1.25 -2.5,1.5 -1.25,0.25 -1.25,0.5 -1.75,1.5 -4.38001,1.49955 -7.9683,2.7425 -15.75,5.25 -2.39341,-0.6116 -2.39277,2.65927 -5.25,5.25 -2.96028,7.75535 -4.11742,13.80562 -5.25,14 -1.25,0 -2.5,3.25 -2.5,4.25 -0.79552,3.12553 -0.51007,4.87139 -2,10.5 0,0 0.25,4.5 0.25,7 -4.37553,2.69267 -6.5917,3.19073 -10.5,4.5 -2.25,0.96432 -2,1.75 -3.25,3.25 -1.25,1.5 -0.75,3.75 -0.75,5.5 0,1.75 1.75,2.5 1.75,2.5 0,0 6.25,2 7.75,2 1.5,0 0.75,2 0,4.5 -0.75,2.5 -0.75,2.5 -4.5,3.5 -3.75,1 -1.75,2.5 0.75,2.75 2.5,0.25 1.75,4 1.75,4 l -3.25,6.25 c 0,0 -1.25,2.25 -4,2.5 -2.75,0.25 -2.25,2.25 -0.25,2.75 2,0.5 4.25,0.75 5.25,1.25 0.0877,2.37178 -0.46805,4.0504 -0.75,6.75 -1.5,0 -2,0 -4.25,0.5 -2.25,0.5 -8.25,5 -8.25,5 0,0 -2.5,1 -4.75,0.75 -2.25,-0.25 -3,1.5 -3,1.5 -4.28551,3.54109 -6.6507,5.64408 -12.5,7.25 -2,0.25 -2.25,2.25 -2.75,3.25 -0.5,1 -3,4.25 -4,5 -1,0.75 -2.25,1.5 -3.25,2.25 -1,0.75 -4,4.25 -5.5,5.5 -7.35242,-1.62293 -13.14061,-2.59674 -18.25,-3.75 9.29393,-6.72175 12.71119,-8.15798 16,-10.25 1.5,-1 8.75,-5.25 11.25,-7.5 2.5,-2.25 -1,-3.75 -3.25,-5.25 -2.25,-1.5 -8,-1.5 -9.5,-1.75 -1.5,-0.25 -5.5,-0.75 -6.75,-0.5 -1.25,0.25 -6.75,0.5 -9.75,0.5 -10.34362,-6.00834 -20.79223,-13.86674 -30.5,-21.5 -1,-1.25 -3.5,-2.25 -6.5,-3 -9.54379,0.98858 -17.6907,0.5824 -28.75,-1.5 -0.98111,-6.29844 -1.42562,-21.54497 -1.75,-32.5 0,-3.25 1.75,-7.5 2.25,-8.5 0.5,-1 5,-9.75 6.25,-11.25 1.25,-1.5 3,-6.75 3,-6.75 0,0 2.95527,-4.64291 4.45527,-5.89291 1.5,-1.25 1.79473,-1.85709 1.04473,-3.35709 -0.75,-1.5 -2,-1.75 -2,-1.75 0,0 -3.75,-0.5 -5,-0.25 -1.25,0.25 -3,-0.25 -3.5,-1.25 -0.5,-1 -2.5,-2 -4,-3.75 -1.5,-1.75 -4.5,-1.75 -5.5,-0.5 -1,1.25 -4.25,1 -5,0 -0.75,-1 -2.25,-0.5 -8.75,-1 -6.5,-0.5 -8.25,1 -8.25,1 0,0 -6.75,3 -8.5,4.25 -1.75,1.25 -5,1.25 -6.25,1 -4.23344,-1.05487 -9.58216,-1.63776 -11.5,-5 -1.25,-2.25 -3.25,-3 -4.25,-2.25 -1,0.75 -3.5,2.5 -3.5,2.5 -2.46861,2.41375 -3.99693,3.80831 -8,5.5 -3.25,-1.25 -2.75,-3.5 -2.75,-5.25 0,-1.75 -2.25,-3.5 -2.25,-5 0,-1.5 -1,-2.5 -2.25,-3.25 -1.25,-0.75 -3.75,-2.75 -5,-4 -1.25,-1.25 -2.5,-1 -5.5,-1 -3,0 -2.5,0.75 -1.75,1.75 0.75,1 2.5,6 4.25,8.25 -2.94587,1.78509 -8.13125,-2.37727 -10,-2 -1.25,0.25 -2.25,0.25 -3,1.5 -2.36544,2.59487 -3.555,4.15131 -7,5.25 -3.25,-0.75 -4.5,-1.25 -6.25,-2 -1.75,-0.75 -5.25,-1.25 -7.75,-1 2.84092,11.83982 -20.12859,2.11697 -25.298,1.562 -4.914,-0.356 -8.122,9.537 -13.463,7.649 -3.011,-1.064 -1.03,-9.059 -7.829,-11.109 -6.703,-2.021 -7.531,3.89 -11.725,7.146 -1.955,1.519 -4.331,1.754 -6.575,2.592 -2.01,0.75 -1.989,5.663 -4.917,6.468 -2.975,0.818 -6.268,0.726 -8.852,2.652 -19.03096,10.58677 -22.75483,11.33695 -31.066,-6.917 -0.683,-1.546 0.274,-3.297 -0.686,-4.818 13.3357,0.60133 18.585,5.621 26.445,4.153 9.41205,-9.56953 12.53143,-12.76194 21.91,-19.735 0.791,-0.357 1.689,-2.667 1.029,-2.903 1.469,-0.906 2.969,-1.813 4.344,-2.862 l -0.59,-2.057 -2.401,0.062 0.076,-8.205 c -4.228,-4.382 -4.23,-1.147 -9.659,0.323 -1.476,3.685 -4.958,1.45 -8.059,1.592 -2.311,-2.625 -6.532,-3.718 -9.221,-6.189 l 0.33,-1.33 c 7.411,-5.617 4.656,-1.271 12.156,-9.996 -0.01,-2.594 -2.767,-5.627 -1.039,-7.999 -0.407,-0.599 -0.441,-1.592 -0.26,-2.267 -1.147,-0.02 -1.318,-1.249 -1.302,-2.108 0.052,-2.816 7.458,-3.218 2.339,-7.83 l -1.751,-1.392 c -1.092,-3.433 8.103,-11.92 -1.233,-15.38 0.888,-3.917 -2.571,-6.706 -2.276,-9.178 -3.616,3.198 -2.397,-4.862 -2.494,-5.208 -1.101,-3.921 2.64,-5.306 2.888,-9.545 6.554,1.826 11.057,5.602 17.815,7.073 6.205,-6.316 14.381,-13.53 17.014,-22.236 -2.842,-2.084 -5.929,-3.547 -9.173,-4.889 3.31236,-2.91978 3.67398,-3.52988 6.226,-5.505 1.908,0.189 15.482,10.312 16.588,10.324 3.013,0.033 5.325,-0.016 7.961,1.77 l 3.142,-0.183 c 2.532,1.811 3.381,2.685 6.726,1.004 0.449,0.401 1.033,0.62 0.824,-0.196 -0.446,-1.735 -1.559,-3.348 -2.43,-4.894 l -2.488,-4.424 c 5.55,2.305 0.327,-3.72 0.132,-5.258 -0.082,-0.647 0.054,-1.77 1.111,-1.316 1.192,4.053 9.018,-0.811 11.296,0.601 1.152,0.714 0.467,2.484 0.467,3.536 0,1.313 6.329,10.463 7.136,11.701 0.999,-1.09 2.004,-2.224 3.15,-3.162 l 5.605,5.463 c 1.636,0.329 3.164,-0.205 4.765,-0.453 5.497,-0.849 14.042,1.401 18.435,0.183 l 0.359,-3.985 2.162,-2.323 c -2.603,-7.656 -5.716,-14.555 -8.741,-22.059 -3.539,-0.31 -7.087,0.242 -10.623,0.349 -24.234,0.733 -39.936,-2.342 -60.965,-14.114 -7.712,-4.317 -23.372,-9.164 -28.885,-15.062 -4.775,-5.109 -2.223,-16.092 -7.985,-19.351 -15.4061,-4.22017 -18.77095,-6.32758 -28.229,-9.814 -4.48562,-3.32256 -5.40104,-7.85078 -8.176,-13.083 4.977,-8.832 19.994,-0.363 18.646,-11.354 -1.392,-11.357 -10.09654,-10.41457 -12.489,-21.972 -0.97082,-4.68983 1.5472,-9.60227 3.304,-14.045 3.34987,-0.34459 7.457,2.625 9.893,3.62 7.057,2.88 20.332,0.69 22.219,-8.091 2.877,-13.391 -18.516,-11.927 -20.992,-13.318 -3.625,-2.037 -0.389,-8.395 -4.866,-9.953 -7.41,-2.577 -5.944,2.68 -9.738,6.95 -6.36192,0.19411 -11.72985,-0.25253 -20.465,-0.714 4.325,-6.264 4.667,-8.913 -2.503,-11.478 -10.85965,-3.45181 -2.09256,-9.32778 -1.351,-14.167 8.34621,-0.82517 -6.25374,-0.91093 3.101,-11.184 2.902,1.424 6.816,3.275 9.139,-0.125 -13.6763,-21.96717 14.81525,-0.97997 5.961,-17.712 -1.15,-1.886 -0.926,-2.031 -2.484,-3.677 -4.848,-5.121 -13.6427,-10.78289 -14.954,-12.763 l 4.411,-0.839 c 2.922,1.705 7.796,4.325 10.963,3.726 3.937,-0.744 5.896,-8.914 2.454,-9.856 -9.43829,0.11077 -14.91783,-1.05662 -21.785,0.328 -1.047,-1.994 -1.3,-3.669 -1.594,-5.885 8.292,-1.967 18.206,3.64 23.57,-2.113 1.715,-1.839 2.049,-2.729 2.001,-5.272 l -1.132,-1.554 c -3.026,-0.564 -5.915,0.222 -8.42,1.96 -1.007,-1.078 -1.504,-2.45 -2.415,-3.585 -2.334,1.054 -5.243,2.716 -7.734,3.171 -3.04403,-0.96216 -4.467,-2.312 -8.501,-3.795 -8.683998,-3.192 -20.674998,-7.104 -5.522,-14.964 0.943,-0.489 5.837,3.758 7.978,3.627 3.806,-0.232 7.426,-17.071 5.931,-19.556 -5.352,-8.893 -11.566,0.567 -14.882998,4.084 -0.849,0.9 -5.478,4.036 -6.422,2.487 -1.552,-2.547 2.134,-10.544 2.52,-13.653 0.444,-3.574 -0.031,-7.62 -0.21,-11.228 3.661,1.298 11.420998,2.854 12.933998,-2.121 1.899,-6.247 -7.969768,-5.94622 -9.526998,-13.057 -1.239096,-5.65809 11.562998,-2.351 10.077998,-10.27 -0.812,-0.857 -2.553,-0.305 -3.594,-1.006 1.552,-2.1 3.147,-4.174 4.962,-6.055 5.719,0.7 12.744,2.282 18.243,3.969 2.593,-1.367 5.458,-2.07 8.22,-3.001 0.527,1.391 1.467,2.565 2.291,3.787 l 4.504,0.241 c -0.68021,-5.13761 -1.04583,-8.55039 -1.03,-16.001 11.9847,-3.24717 23.55,-1.886 23.803,-2.246 -0.89,-5.331 -2.956,-10.702 -4.264,-15.972 1.256,-3.582 9.871,-13.311 12.426,-18.362 3.031,1.247 6.168,1.192 9.411,1.373 3.745,3.746 2.913,13.054 4.083,17.45 0.594,2.231 6.289,-0.413 6.062,1.73 l 12.693,0.662 c -0.547,-0.709 -1.077,-1.662 -1.754,-2.25 3.155,-0.958 7.484,-0.597 10.732,-0.519 l 1.281,1.805 15.482,-0.751 3.755,3.988 2.015,-1.68 -6.505,-9.843 c 8.555,-5.974 17.3,-11.547 26.018,-17.271 1.197,0.164 6.64073,-1.752908 7.42473,-0.472908 13.12967,0.360958 15.73927,-5.74039 25.91327,-12.86009 -0.676,-5.865 13.5091,-12.051283 19.343,-17.961 -3.62019,-2.715489 -6.12847,-5.506094 -8.05,-9.461 l 4.737,-4.485 3.23,1.819 c 3.539,-2.744 7.15,-5.376 10.637,-8.191 l 0.162,-3.61 22.934,2.162 9.517,-9.009 8.17,3.316 3.811,-2.741 c 3.80586,2.998541 6.54255,10.150271 11.754,8.494 3.564,2.522 4.577,7.362 7.996,10.03 2.501,1.951 10.58009,4.258183 19.065,8.468 l 11.075,-9.77 c 13.84227,-6.260847 26.305,-11.783 34.378,-11.757 2.041,0.008 18.11,-0.475 18.335,-0.364 2.607,1.293 3.227,4.567 3.457,7.185 1.01,11.525 4.077,5.782 9.939,5.75 l 1.417,0.913 0.215,0.806 c 1.96638,-5.478882 9.83785,-10.405455 13.051,-12.559 l 2.7069,3.916349 c 0.076,0.355 7.2751,7.388651 8.2111,7.291651 l -0.04,1.068 c 1.805,1.372 11.367,-4.512 13.472,-5.61 l 0.733,-1.364 8.382,7.335 4.19472,2.497183 c 2.654,2.733 2.98797,-2.07133 5.15397,2.62767 1.633,-0.791 2.03731,2.015147 3.65931,1.203147 0,0 -0.405,2.502 1.532,4.007 2.7406,0.683118 4.18465,1.891787 4.384,3.771 -1.071,1.025 -0.592,2.23 0.324,3.151 -0.843,2.199 9.296,8.089 11.319,8.733 -0.336,1.412 1.527,4.582 2.624,5.52 l -0.442,0.905 c 3.638,3.749 7.956,7.093 11.378,10.885998 l -1.327,0.561 -1.355,2.621 c 2.258,5.375 4.876,10.606 6.78,16.125 l -1.415,0.406 -0.206,2.027 -1.386,0.188 c 4.675,6.013 12.094,10.991 18.113,15.631 4.522,-0.825 9.036,-1.709 13.594,-2.316 l 11.895,7.63 c 3.081,9.565 5.445,18.525 10.346,27.41 l 10.838,-3.557 -1.02,-2.636 7.25,-1.959 c 1.099,3.828 1.883,7.741 3.059,11.548 l -1.02,0.399 0.567,1.917 -0.302,1.039 1.623,3.396 4.229,-1.12 c 0.491,1.514 1.066,3.004 1.435,4.556 l 4.041,-0.96 15.784,15.743 c -1.261,2.528 -2.092,5.237 -3.097,7.871 l 1.322,1.878 0.755,-0.28 1.813,6.393 c 1.974,-0.597 3.99,-1.041 6.004,-1.478 1.977,4.362 3.156,9.054 4.229,13.705 l -1.284,0.278 0.755,2.917 1.322,-0.319 1.194,4.703 c 1.853,-0.907 3.248,0.583 5,0.133 l 0.417,-0.8 c 6.317,-2.301 11.155,-1.557 17.653,-1.244 1.368,-4.918 2.446,-9.915 3.84,-14.826 l 12.266,5.123 c -0.737,3.974 -1.675,7.953 -1.875,12.002 l -2.598,0.363 c -2.892,6.619 -1.619,13.914 -2.338,20.89 l 0.434,1.02 -1.929,5.663 2.242,2.345 c -0.768,4.597 -0.842,6.598 1.037,10.969 -10.169,9.049 -4.24,10.24 -13.042,20.532 0.829,4.389 1.543,8.845 1.711,13.314 2.388,-0.75 4.82,-1.35 7.232,-2.014 2.79204,4.52591 14.34422,22.13294 10.728,24.05 -5.82995,5.58518 -8.39009,8.49343 -18.803,15.278 0.73,1.499 0.53,5.434 0.53,5.434 l 0.097,3.773 c 14.55887,3.08601 18.61756,3.49082 31.314,7.065 1.692,1.425 3.503,7.266 4.146,7.729 0,0 -4.003,3.343 -4.797,4.691 l 0.217,1.761 c 1.331,1.496 7.498,6.801 9.426,6.146 l 1.567,0.893 c 2.045,-0.283 4.112,-0.336 6.171,-0.459 0.317,1.503 0.827,2.956 1.229,4.437 0.715,0.161 1.526,0.548 2.049,1.072 -0.345,0.841 -0.121,5.737 -0.121,5.737 l 0.362,2.755 c 1.842,0.252 3.71,0.371 5.568,0.408 0.11,1.89 0.675,3.77 0.82,5.689 3.31,2.653 6.369,4.792 10.052,7.063 5.83183,8.46251 8.0602,10.69267 11.079,14.869 5.163,-0.805 10.271,-1.937 15.323,-3.264 l -0.638,8.743 c 1.97,0.122 4.329,-1.43 5.994,-2.363 1.536,3.327 3.332,6.479 5.036,9.719 l 5.179,-2.213 c 1.528,0.715 3.511,-1.63 5.107,-1.689 l 5.427,-0.112 c 0.92,-1.167 1.846,-2.333 2.943,-3.341 l -1.489,-1.763 c 1.456,-1.103 2.757,-2.469 4.008,-3.79 0,0 3.67,0.792 4.54,-0.226 0.508,0.834 1.5,1.586 2.412,1.914 l -0.071,2.213 c -2.443,1.492 2.299,10.011 2.447,12.872 1.644,2.112 3.998,3.437 5.817,5.368 l -2.093,4.803 c 1.703,2.203 3.226,4.564 5.214,6.53 8.64471,2.74293 11.08594,5.33855 18.514,9.269 l 1.667,-1.688 -0.107,-0.676 3.334,-3.752 c 2.689,1.62 9.15,1.352 9.15,1.352 l 1.667,1.764 c 1.288,0.638 4.363,1.575 4.363,1.575 2.655,1.02 4.636,3.248 6.774,5.029 0.997,-0.601 1.969,-1.249 3.014,-1.764 2.727,1.222 5.538,2.241 8.3,3.377 1.96971,-3.07759 2.30784,-2.59385 4.86,-2.963 l 10.108,10.695 c 4.157,1.756 8.94,2.859 13.271,4.218 1.439,2.485 1.654,7.786 4.215,9.216 l 1.135,-0.151 c 1.609,0.805 3.133,1.236 4.859,0.488 2.029,3.253 3.77221,9.9866 4.044,14.823 -2.399,1.428 -6.638,4.803 -8.808,5.73 -1.896,0.81 -4.346,-1.237 -5.699,1.174 l -3.299,5.443 c -1.664,3.878 2.167,5.218 3.689,8.105 -1.224,0.919 -3.157,2.498 -3.229,4.127 -2.474,1.966 -4.553,5.98 -5.498,8.969 -1.732,0.015 -4.607,4.521 -1.879,5.104 0.56,1.667 1.417,3.215 1.986,4.879 -3.493,1.219 -7.39,1.557 -10.711,3.226 l -1.1,-0.711 c -1.589,-0.284 -3.278,-0.105 -4.752,-0.864 l -1.349,3.039 -3.263,1.615 c 0,0 -5.348,-0.553 -5.958,0.112 -1.47,0.035 -2.881,1.559 -3.228,2.74 0.98,2.065 2.764,4.301 4.398,6.643 l 1.809,1.913 c 1.712,0.376 6.077,3.64 7.661,4.688 l 2.802,2.588 -2.341,3.527 c 2.952,3.212 6.692,5.577 10.287,7.993 l 2.234,-0.788 c 9.139,1.922 15.865,5.685 23.763,10.883 2.576,-1.998 6.822,1.91 8.938,3.226 l -0.106,0.977 2.057,2.139 -0.709,2.776 c 0.746,1.756 2.262,3.341 2.589,5.254 l -0.461,0.901 c 0.797,1.312 0.722,5.138 0.851,6.792 -5.606,1.805 -10.233,2.64 -15.889,3.902 -0.863,1.509 -2.437,2.216 -3.583,3.454 -1.104,0.188 -2.336,0.2 -3.44,0 l -1.773,1.163 c -1.705,-0.381 -6.332,-1.016 -7.662,0.263 l -0.177,-1.05 -2.306,-1.314 -2.554,0.225 c 0.45,1.135 -1.359,1.616 -2.057,2.327 -0.945,-0.034 -1.401,-0.623 -2.412,-0.375 -3.8,-2.591 -3.846,0.231 -7.235,0.301 l -0.461,0.712 c -1.993,0.097 -4.457,-0.98 -5.888,-0.826 l -1.348,1.577 c -1.213,-0.506 -5.036,-0.564 -5.036,-0.564 -0.885,1.242 -1.328,4.28 -2.341,4.841 l -0.036,1.99 c 0,0 -0.566,2.738 -0.923,3.601 l -1.631,2.327 2.979,3.114 c 0,0 -1.31,1.498 -1.986,1.952 0.017,0.935 0.299,1.917 0.816,2.702 0.849,0.376 1.621,0.767 2.322,1.17 z"
           id="path15"
           style="display:inline;fill:#006871;fill-opacity:0.317647"
           inkscape:label="path15"
           sodipodi:nodetypes="ccccsssscsssssssssssssssssccssssssccccssccccccssccscssccssssccccsssccsssssssccccssccsssscccsssssssssccccccccsscssssccssccscsccssscccsssscccccsscsscsssssscsccsccssssssccccscccsccscccccccccccccccccccccccccccccccccccscsscccccccccccccccsccccccccccccccccccccccccccccccccccsccccccccccccccccccccccccccccccccccccccccccccccccccccccccccccccccccccccccccccccccccccccccccccccccccccccccccccccccccccccccccccccccccccccccccccccccccccccccccccccccccsccccccccccccccccccccccccccccccccccccccccccccccccccccc" />
        <path
           fill-rule="evenodd"
           clip-rule="evenodd"
           fill="none"
           stroke="#0978ab"
           stroke-width="1.2756"
           stroke-linejoin="round"
           stroke-miterlimit="3.8637"
           d="M 549.5083,516.81963 C 549.5083,516.81963 551.7583,513.31963 552.0083,512.31963 552.2583,511.31963 552.7583,507.81963 551.2583,505.56963 549.7583,503.31963 551.5083,499.31963 551.5083,499.31963 551.5083,499.31963 553.7583,497.81963 556.0083,497.81963 558.2583,497.81963 559.7583,496.56963 561.2583,494.31963 562.7583,492.06963 562.2583,484.31963 562.2583,482.56963 562.2583,480.81963 561.5083,476.31963 560.7583,474.31963 560.0083,472.31963 557.5083,467.81963 555.5083,463.31963 553.5083,458.81963 544.0083,452.06963 543.0083,451.31963 542.0083,450.56963 539.0083,449.31963 537.7583,447.56963 536.5083,445.81963 537.2583,443.56963 537.5083,442.31963 537.7583,441.06963 539.2583,438.31963 540.2583,437.06963 541.2583,435.81963 542.2583,433.31963 542.2583,431.06963 542.2583,428.81963 544.5083,429.31963 546.2583,429.31963 548.0083,429.31963 548.0083,428.31963 547.7583,425.81963 547.5083,423.31963 544.5083,421.81963 543.0083,421.31963 541.5083,420.81963 537.5083,416.56963 536.2583,415.56963 535.0083,414.56963 533.7583,415.06963 532.2583,414.06963 530.7583,413.06963 529.2583,411.81963 529.2583,410.31963 529.2583,408.81963 528.2583,407.56963 526.7583,405.56963 525.2583,403.56963 527.5083,400.31963 529.2583,399.06963 531.0083,397.81963 531.2583,395.81963 531.5083,394.81963 531.7583,393.81963 531.7583,393.06963 532.7583,391.81963 533.7583,390.56963 534.0083,389.56963 534.0083,388.31963 534.0083,387.06963 534.0083,383.31963 533.7583,381.06963 533.5083,378.81963 531.5083,376.81963 530.2583,376.31963 529.0083,375.81963 524.5083,371.81963 524.5083,371.81963 524.5083,371.81963 522.0083,370.31963 521.0083,370.06963 520.0083,369.81963 519.5083,369.56963 518.2583,368.06963 517.0083,366.56963 516.2583,364.06963 514.5083,362.56963 512.7583,361.06963 511.5083,360.81963 510.2583,358.31963 509.0083,355.81963 508.0873,353.92863 508.0873,353.92863 508.0873,353.92863 502.1653,350.06963 499.1963,346.50763 496.2273,342.94563 497.7263,341.75763 496.2423,339.69563 494.7583,337.63263 493.8673,336.74163 492.9773,334.36663 492.0863,331.99163 491.7893,330.52263 492.6803,328.74163 493.5713,326.96063 494.7723,322.22563 496.8363,320.44463 498.8993,318.66363 500.9773,316.58563 502.4613,315.99263 503.9453,315.39863 504.2423,313.33563 503.9453,311.85063 503.6483,310.36663 501.2593,308.28863 498.8993,308.28863 496.5393,308.28863 493.8673,308.58563 492.3833,309.17963 490.8993,309.77363 490.3203,310.36763 489.1323,311.25763 487.9453,312.14763 484.0863,312.44463 483.7893,310.66363 483.4923,308.88263 481.7263,307.08663 480.8353,306.21063 479.9443,305.33463 477.5843,301.47563 482.6163,301.77263 487.6483,302.06963 490.3043,299.41263 491.1953,296.74063 492.0863,294.06863 493.5703,288.14663 495.3513,286.95963 497.1323,285.77163 498.3053,284.86763 498.8983,283.10063 499.4923,281.33363 500.1003,280.74063 497.7253,278.66263 495.3503,276.58463 492.9763,274.52163 492.0853,273.33363 491.1943,272.14563 488.2263,270.64763 491.1943,268.28763 494.1623,265.92763 492.9753,263.84963 492.0853,261.47563 491.1953,259.10163 490.3043,254.36663 493.8663,255.55363 497.4283,256.74063 503.6613,256.44363 506.3193,254.66263 508.9763,252.88163 513.1463,251.41163 514.3193,249.63063 515.4923,247.84963 516.6943,244.59863 514.0223,241.92763 511.3513,239.25663 509.2733,236.27363 508.6793,235.10063 508.0853,233.92763 508.6793,227.70863 508.9763,224.74063 509.2733,221.77263 510.1633,212.57063 508.6793,210.21063 507.1953,207.85063 499.8033,200.44363 498.3193,199.55363 496.8353,198.66263 495.9303,197.77263 493.2733,197.17863 490.6163,196.58463 488.5383,194.52163 488.5383,191.55363 488.5383,188.58463 489.4143,186.22463 491.7883,185.63163 494.1623,185.03863 501.2723,179.38363 502.4593,178.21063 503.6473,177.03763 505.4273,172.58563 502.1623,171.99163 498.8973,171.39763 498.0213,168.44363 497.4273,167.25663 496.8343,166.06863 492.6783,157.47563 492.0843,156.28763 491.4903,155.10063 490.6003,153.63063 492.0843,151.55363 493.5683,149.47563 493.8653,148.57063 492.6783,146.50763 491.4903,144.44463 490.0063,140.86763 491.7873,138.21063 493.5683,135.55363 495.6323,131.39863 492.0843,131.39863 488.5373,131.39863 486.4593,132.58563 485.5683,132.58563 484.6773,132.58563 483.5053,131.97763 482.3173,130.50763 481.1293,129.03763 476.9883,121.33463 474.6143,120.14763 472.2393,118.96063 470.1763,115.10163 474.6143,115.99263 479.0523,116.88263 480.2253,118.05563 483.4903,115.69563 486.7553,113.33563 489.4413,106.52263 490.3173,104.74163 491.1933,102.96063 491.5053,99.412632 488.8333,97.335632 486.1613,95.257632 480.2393,91.384632 478.7553,90.508632 477.2713,89.632632 473.1153,85.758632 477.8643,82.805632 482.6143,79.851632 486.7553,76.586632 487.3483,75.696632 487.9423,74.805632 489.1293,73.633632 487.0513,70.664632 484.9733,67.695632 482.8953,66.211632 482.8953,66.211632 482.8953,66.211632 478.7403,60.289632 482.8953,54.367632 487.0513,48.445632 488.2523,45.773632 490.6133,44.289632 492.9743,42.805632 496.5503,40.741632 498.0193,38.367632 499.4883,35.993632 500.3793,33.632632 500.6763,32.445632 500.9733,31.258632 503.3623,26.226632 506.0193,24.445632 508.6763,22.664632 509.0043,20.320632 509.5043,16.070632 510.0043,11.820632 512.0043,7.320632 515.0043,7.320632 518.0043,7.320632 520.7543,6.820632 522.0043,7.820632 523.2543,8.820632 525.0043,9.070632 527.0043,6.320632 529.0043,3.570632 531.2543,0.32063197 531.7543,-0.67936803 532.2543,-1.679368 534.5043,-4.429368 537.7543,-5.179368 541.0043,-5.929368 542.73648,-8.6435493 541.98648,-11.393549"
           id="path17"
           style="display:none" />
        <path
           fill-rule="evenodd"
           clip-rule="evenodd"
           fill="none"
           stroke="#0978ab"
           stroke-width="1.7008"
           stroke-linejoin="round"
           stroke-miterlimit="3.8637"
           d="M 92.758302,186.94363 C 92.963302,190.21763 93.229302,193.52863 92.823302,196.79663 92.566302,198.86363 89.753302,205.80163 90.010302,210.06863 89.885302,213.81963 91.382302,217.94363 93.633302,218.31863 95.884302,218.69363 102.1333,221.07263 102.7583,223.82063 103.3833,226.56863 105.5093,236.44463 105.5093,237.44463 105.5093,238.44463 106.1343,244.81963 106.1343,244.81963 L 105.8893,247.19463 C 105.8723,249.18863 106.6343,251.62763 107.7593,253.11163 L 108.2573,254.31963 C 108.2573,254.31963 110.0073,258.19363 110.7583,258.94363 L 112.3923,262.18963 C 113.7313,264.72663 116.2633,267.43663 119.1243,268.81963 122.2953,270.35163 124.0973,270.92763 125.6563,272.12763 128.1333,274.07163 125.9003,280.21363 120.2283,281.84763 119.4993,282.05763 118.7903,282.33063 118.1273,282.69363 116.4933,283.58763 116.0393,285.14163 116.2983,286.70963 116.5873,288.45363 114.7983,291.51863 113.7563,292.32063 111.2733,294.23363 106.9873,295.11663 107.1313,298.70163 107.2313,301.17963 110.7053,303.25463 110.6323,304.00863 110.4183,306.20063 108.3843,308.11863 106.9273,309.63763 101.90175,317.77481 110.2553,318.11263 113.8803,319.36263 117.2423,320.72563 116.2563,324.94663 114.8903,328.55163 112.7523,334.19263 134.55584,335.34206 139.0303,332.14863 140.7803,330.17863 141.3363,327.92263 142.7303,325.86463 143.6523,324.50463 147.0493,324.74263 147.4423,328.67363 148.1673,335.93163 150.3123,336.00663 156.3433,336.70563 184.7813,340.00163 165.5963,358.57663 151.5413,352.83963 148.6453,351.65663 146.8183,348.87363 143.4213,348.34563 135.1843,347.06563 136.1383,360.26763 135.1683,364.95663 136.05166,376.71624 146.4933,378.45163 147.6263,387.68763 148.5433,395.16763 134.7893,387.80163 129.2643,397.60663 129.11205,406.45084 136.16354,409.28972 141.27754,413.04172 152.17948,417.05256 156.59554,421.58672 156.59554,421.58672 164.69306,423.88414 167.7983,420.05063 169.7673,431.04563 172.0893,444.00863 175.4833,445.50863 188.3553,451.26263 218.6653,464.80863 228.9573,473.62663 265.6133,472.51663 268.5883,472.42663 271.5733,472.00063 274.5533,472.08063 274.5533,472.08063 285.0053,469.06963 289.0053,469.06963 293.0053,469.06963 296.7553,468.06963 299.0053,466.06963 301.2553,464.06963 304.2553,461.81963 308.7553,462.81963 313.2553,463.81963 315.0053,465.81963 315.7553,467.06963 316.5053,468.31963 318.5053,473.06963 318.7553,474.56963 319.0053,476.06963 320.2553,479.31963 323.5053,480.31963 326.7553,481.31963 328.5053,481.56963 330.7553,480.56963 333.0053,479.56963 336.5053,477.56963 338.7553,477.56963 341.0053,477.56963 345.5053,477.31963 347.2553,477.31963 349.0053,477.31963 362.0053,475.06963 363.5053,474.06963 365.0053,473.06963 371.0053,472.31963 374.2553,473.56963 377.5053,474.81963 378.7553,474.81963 380.2553,474.81963 381.7553,474.81963 385.2553,474.81963 386.5053,475.31963 387.7553,475.81963 394.2553,478.06963 394.2553,478.06963 394.2553,478.06963 398.2553,478.56963 401.2553,477.56963 404.2553,476.56963 409.7553,473.56963 411.0053,472.56963 412.2553,471.56963 414.7553,469.56963 414.7553,468.06963 414.7553,466.56963 413.7553,462.81963 413.7553,462.81963 413.7553,462.81963 413.7553,458.31963 416.5053,458.06963 419.2553,457.81963 420.0053,457.81963 421.2553,458.81963 422.5053,459.81963 428.2553,462.06963 429.5053,462.81963 430.7553,463.56963 432.7553,465.56963 433.7553,467.56963 434.7553,469.56963 436.7553,475.06963 437.5053,476.06963 438.2553,477.06963 439.7553,481.81963 441.7553,483.81963 443.7553,485.81963 446.2553,488.81963 447.5053,490.31963 448.7553,491.81963 463.7553,498.81963 468.2553,500.31963 472.7553,501.81963 475.7553,503.06963 479.5053,502.06963 483.2553,501.06963 487.7553,500.31963 490.2553,501.31963 492.7553,502.31963 503.7553,502.06963 506.2553,499.56963 508.7553,497.06963 515.2553,494.56963 517.5053,495.06963 519.7553,495.56963 523.7553,495.56963 526.2553,497.56963 528.7553,499.56963 533.7553,502.31963 536.2553,503.81963 538.7553,505.31963 541.0053,507.81963 542.0053,509.06963 543.0053,510.31963 548.5053,515.56963 549.5053,516.81963 550.5053,518.06963 556.0053,525.56963 556.5053,527.56963 557.0053,529.56963 559.7553,534.56963 559.7553,534.56963 L 562.0313,537.54663 562.0003,540.44663 562.1063,540.64363 C 563.9643,543.81263 567.8873,543.81963 570.6033,547.44163 573.4323,551.21263 571.8013,554.28863 574.3533,557.69163 575.8373,559.67063 576.3753,566.45263 574.4063,568.23263 576.8093,574.12663 571.7063,573.94063 569.7903,577.77063 568.7533,579.84463 567.5903,580.61763 565.2653,580.61763 563.4743,580.61763 561.4083,581.32063 559.8873,582.14963 561.1093,585.47463 563.0423,587.25263 558.7683,589.85863 557.4933,590.63663 553.5733,592.03363 552.9063,592.89063 552.8743,593.78363 553.2513,594.70763 553.2513,595.63263 553.2513,598.01163 556.2223,597.42063 557.5103,601.02763 557.5103,601.02763 561.7563,607.81963 564.5063,609.31963 567.2563,610.81963 569.5063,614.31963 571.0063,617.56963 572.5063,620.81963 576.7563,632.56963 579.0063,634.31963 581.2563,636.06963 583.7563,638.81963 587.7563,640.06963 591.7563,641.31963 597.2563,644.81963 601.0063,648.31963 604.7563,651.81963 613.7563,653.81963 616.5063,654.81963 619.2563,655.81963 625.2563,655.56963 628.2563,655.56963 631.2563,655.56963 638.2563,654.31963 640.0063,651.81963 641.7563,649.31963 644.2563,647.06963 645.2563,646.81963 646.2563,646.56963 650.0253,642.94563 654.7653,642.63263 659.5053,642.31963 663.2563,643.56963 666.0063,645.81963 668.7563,648.06963 669.5063,650.56963 670.7563,652.31963 672.0063,654.06963 673.0063,657.06963 672.2563,658.56963 671.5063,660.06963 671.2563,663.31963 669.7563,664.06963 668.2563,664.81963 665.5013,673.38263 665.5013,673.38263 665.5013,675.13163 662.2953,675.71263 662.4553,679.48963 L 663.2623,680.11163 C 664.8233,681.33863 666.7203,683.48563 664.6693,685.53663 L 664.4353,685.77863 C 665.3183,686.41063 665.7643,686.85263 666.1443,687.13863 670.6823,687.13863 669.7273,693.89763 672.0153,693.89763 676.9833,693.89763 681.7713,698.54263 682.7113,703.24363 683.4353,706.85963 684.2143,705.09163 684.8213,710.24863 689.5753,711.77963 687.4153,715.51363 689.7893,718.36163 690.7953,719.56963 693.5163,721.70263 693.9243,722.02063 L 696.4203,723.68463 C 697.5313,723.75163 700.0723,723.89863 701.0143,723.89863 707.6763,723.89863 705.3283,731.55063 710.9613,731.79863 712.8853,730.19463 714.1303,730.64863 716.2643,730.64863 718.6023,730.64863 725.4753,728.10563 725.9723,732.16463 726.1393,732.15663 726.3213,732.14863 726.5143,732.14863 727.5143,732.14863 729.0763,732.27363 730.5143,732.27363 731.1243,732.27363 731.9553,732.30963 732.5423,732.08663 734.7503,729.87863 738.6873,731.60963 742.4183,728.92763 743.7023,728.00463 745.1223,727.14863 746.7643,727.14863 H 753.2643 C 753.4323,727.14863 753.5903,727.15363 753.7453,727.13463 755.5303,726.30163 755.7863,723.75463 759.8753,722.93663 762.4923,722.41363 759.7783,717.87963 763.4643,716.97263 765.1063,714.96863 766.0133,714.31363 768.0873,712.78463 772.6853,709.39663 772.1923,711.16263 775.4633,709.96063 777.5033,702.82263 779.5133,706.14163 784.2743,702.33363 785.7393,701.16163 787.9613,701.61463 789.8263,701.40763 789.8263,701.40763 791.5093,701.27163 793.3933,701.30463 795.1783,701.33563 797.6643,701.44363 799.1683,702.51763 800.6853,703.60063 801.2893,703.64763 801.7643,703.64763 802.7643,703.64763 806.0143,703.14763 807.0143,703.14763 808.2193,703.14763 809.8683,701.76863 810.6543,700.83263 L 811.7703,699.48663 C 813.6713,697.20563 816.8043,694.14763 820.0143,694.14763 822.2673,694.14763 824.7783,695.23263 826.9833,694.91763 828.1943,694.74463 829.0303,694.88263 829.8303,695.48263 830.4073,695.77163 831.2773,695.88063 831.8973,695.73263 832.6273,693.54163 833.6643,689.63663 836.4373,689.17463 836.6143,689.14563 836.8973,688.97763 837.0493,688.75063 833.8033,683.88163 840.4543,682.13963 842.4103,680.80563 843.3043,678.57163 846.3113,678.02763 847.8593,676.47963 849.1953,675.14363 851.1873,674.14863 853.5123,674.14863 858.3483,674.14863 860.7173,669.64863 865.2623,669.64863 866.1553,669.64863 868.2683,669.37163 869.2343,669.23863 871.0653,667.99863 873.3063,667.39863 875.5123,667.39863 877.7273,667.39863 879.6313,666.39863 881.7623,666.39863 883.7383,666.39863 884.9463,665.52263 885.8183,663.86563 V 663.86563 C 888.14447,661.74198 889.4493,659.59263 891.2513,658.27763 891.7403,657.42163 892.4813,655.89963 893.7623,655.89963 H 896.2343 L 901.2173,654.47563 903.5803,654.32863 C 909.1563,657.67963 910.7683,661.87363 911.3953,665.69163 911.6513,667.24863 911.5453,671.54763 913.2423,672.34363"
           id="path19"
           style="display:none" />
        <path
           fill="none"
           stroke="#0978ab"
           stroke-width="1.2756"
           stroke-linejoin="round"
           stroke-miterlimit="3.8637"
           d="M 611.0083,653.06963 C 603.5083,653.31963 606.2583,659.06963 607.0083,660.56963 607.7583,662.06963 607.5083,663.81963 605.5083,667.56963 603.5083,671.31963 598.5083,670.06963 596.0083,670.06963 593.5083,670.06963 588.7583,671.56963 587.0083,671.56963 585.2583,671.56963 582.7583,675.06963 581.0083,676.31963 579.2583,677.56963 575.0083,684.06963 574.2583,685.56963 573.5083,687.06963 572.5083,689.31963 566.7583,693.06963 561.0083,696.81963 561.5083,702.81963 561.5083,704.06963 V 715.31963 C 561.5083,717.06963 561.0083,720.31963 559.5083,721.81963 558.0083,723.31963 557.5083,723.31963 556.7583,727.06963 556.0083,730.81963 551.7583,731.06963 547.7583,730.56963 543.7583,730.06963 542.2583,728.06963 537.5083,724.81963 532.7583,721.56963 536.7583,716.56963 538.2583,715.31963 539.7583,714.06963 542.7583,710.31963 539.0083,707.81963 535.2583,705.31963 532.2583,708.81963 531.0083,710.81963 529.7583,712.81963 527.5083,718.56963 526.7583,720.56963 526.0083,722.56963 524.0083,726.56963 517.7583,726.56963 511.5083,726.56963 514.2583,717.81963 514.7583,714.56963 515.2583,711.31963 511.5083,708.31963 508.2583,707.56963 505.0083,706.81963 499.5173,710.04263 499.5173,710.04263 493.6883,710.04263 493.51539,711.95245 488.06303,713.97863 484.90103,715.07563 480.56421,714.94018 477.7933,718.49263 477.5073,718.76563 476.9953,719.27063 476.4543,719.87963 475.0913,721.41263 474.7563,723.86263 472.7653,724.06163 468.6763,724.78163 464.3413,724.10963 462.6543,728.58963 461.3433,732.07163 458.4453,733.82363 455.6623,735.91063 452.8793,737.99763 451.0893,742.29263 447.2663,742.29263 H 440.2663 C 439.8583,742.29263 438.2453,741.68563 437.4313,741.36663 436.5813,740.24163 433.3693,737.27663 433.4883,736.23663 434.0713,735.45863 437.40312,734.50363 437.77012,733.61763 444.32585,728.79709 443.4273,734.82063 450.0363,730.41363 453.1993,728.30563 453.5191,724.63525 460.59821,715.72908 462.69672,713.08897 451.97621,714.09154 446.69321,713.21154 440.87021,712.24154 436.9363,712.54363 431.0153,712.54363 428.0993,712.54363 424.0073,712.04063 421.4423,710.54363 415.1473,706.87163 406.5923,697.53463 401.9523,691.73363 400.5103,689.93163 397.3853,688.82863 394.4613,688.09763 391.1083,687.25963 387.6823,689.05963 384.9943,690.85163 384.1203,691.43363 374.7973,691.29263 373.7653,691.29263 366.3613,691.29263 363.6053,681.72663 363.6053,675.88263 363.6053,672.88263 365.3553,659.13263 365.3553,655.88263 365.3553,653.07163 366.9453,649.13763 367.4113,648.20563 370.3983,642.23163 374.4283,636.68963 376.6183,630.38363 377.5623,629.44463 381.6933,625.54663 381.6933,625.54663 384.57803,620.86572 382.8403,618.75463 380.1983,617.12863 379.4563,616.67163 378.8173,616.56863 378.8173,616.56863 377.8733,616.44063 372.0423,616.33563 371.6603,616.05963 370.8693,614.47863 368.5853,613.30463 367.4113,611.93463 363.1283,606.93663 358.2573,613.18063 357.0173,611.52763 L 355.5043,610.31863 C 354.2543,609.06863 354.0043,608.06863 353.0043,601.31863 352.0043,594.56863 343.2543,595.56863 340.0043,595.56863 336.7543,595.56863 333.5043,593.06863 333.0043,591.56863 332.5043,590.06863 331.2543,589.06863 327.0043,589.06863 322.7543,589.06863 321.0043,588.31863 318.7543,586.06863 316.5043,583.81863 313.7543,584.06863 312.2543,585.81863 310.7543,587.56863 307.7543,588.31863 303.7543,586.06863 299.7543,583.81863 300.0043,585.56863 298.7543,586.81863 297.5043,588.06863 291.2543,588.56863 289.0043,587.56863 286.7543,586.56863 286.7543,586.56863 283.2543,587.81863 279.7543,589.06863 284.0043,592.81863 285.0043,594.31863 286.0043,595.81863 286.0043,599.06863 284.0043,599.06863 282.0043,599.06863 280.5043,598.31863 279.0043,595.56863 277.5043,592.81863 274.0043,594.56863 272.2543,596.81863 270.5043,599.06863 268.5043,599.56863 267.0043,600.06863 265.5043,600.56863 262.5043,601.56863 260.2543,601.56863 258.0043,601.56863 258.5043,603.06863 259.7543,604.31863 261.0043,605.56863 261.5043,605.31863 264.0043,605.31863 266.5043,605.31863 267.0133,607.56863 266.0133,609.56863 L 265.5903,611.19663 C 265.0383,612.64463 264.3283,613.69963 261.6773,613.08863 258.3573,612.32263 242.2923,605.68863 244.1843,614.33763 245.2733,619.31463 251.0683,618.98863 253.8473,622.30463 L 254.5693,626.06063 C 250.9433,629.06063 243.4073,621.04463 240.1253,618.85563 234.7963,615.30163 231.3543,622.16763 225.8683,618.22763 L 219.45021,618.44427 C 216.16421,621.90227 207.3153,626.70063 204.8353,619.98563 203.7323,616.99963 203.7623,613.28863 200.0183,612.15963 197.1303,611.28863 196.0853,612.32663 194.5153,614.31463 L 193.3903,615.76263 C 189.7413,620.39763 188.1013,620.00963 183.1673,621.85163 179.4733,628.39963 182.1013,627.48063 173.3513,629.32463"
           id="path23"
           style="display:none" />
        <path
           fill-rule="evenodd"
           clip-rule="evenodd"
           fill="none"
           stroke="#646464"
           stroke-width="1.4173"
           stroke-linejoin="round"
           stroke-miterlimit="3.8637"
           d="M 328.2583,247.84963 321.7263,257.63063 339.1963,270.95963 C 339.1963,270.95963 340.0873,274.50663 340.6803,275.69463 341.2743,276.88163 340.9773,277.77263 338.8993,278.66263 336.8213,279.55363 331.7903,283.10063 331.7903,283.10063 L 322.3203,304.14663 324.3833,317.17863 H 313.4293 L 309.2743,320.74063 308.9773,331.99163 295.3523,339.39763 286.1643,332.88163 274.0233,339.10063 271.3523,338.80363 H 267.7903 L 258.0233,328.74063 253.5713,329.92863 250.8993,326.96063 247.0553,326.06963 252.0873,315.99163 258.3203,310.66263 256.5393,308.88163 259.1963,306.80363 255.6493,301.77163 253.2743,304.44263 H 241.7263 L 239.6483,295.25563 245.5703,288.14563 250.6163,282.50563 242.8983,274.50563 H 237.2733 L 236.0853,272.44263 H 233.7253 L 232.2413,269.77163 242.6163,260.28763 226.0223,255.84963 M 242.3183,245.17863 274.6153,216.44363"
           id="path27" />
        <polyline
           fill-rule="evenodd"
           clip-rule="evenodd"
           fill="none"
           stroke="#646464"
           stroke-width="1.4173"
           stroke-linejoin="round"
           stroke-miterlimit="3.8637"
           points="  310.77,256.454 301.27,243.126 288.818,246.97 269.27,246.673 252.38,259.422 "
           id="polyline29"
           style="display:inline;stroke:#ffffff;stroke-opacity:1"
           transform="translate(75.863302,-11.572368)" />
        <path
           fill-rule="evenodd"
           clip-rule="evenodd"
           fill="none"
           stroke="#646464"
           stroke-width="2.5512"
           stroke-linejoin="round"
           stroke-miterlimit="3.8637"
           d="m 901.7683,656.38263 -8,1.5 -7.5,8.75 -16.25,4.5 c -5.59529,1.39882 -11.18914,2.68199 -16.5,5 l -14.75,11.5 -5,8.75 -13.75,-0.25 -13,9 -9,-1 -12.5,-0.25 -8.25,6.75 -13.25,8.25 -3.75,6 -19.5,7.25 -28.5,1.25 -11.25,-7.5 -8.25,-2.25 -9.75,-11.75 -5.25,-13.5 -5.75,-2.5 -11,-15 2.5,-7.5 v -10 l -4.5,-7.5 -8.5,-2.25 -0.25,-7 7.5,-10.25 1.25,-21 -10,-6.75 -19.25,-14.5 -1.5,-10 -8.25,-1.5 c -1,-1 -5.25,-5.5 -6.25,-6.25 l -16.5,-17.5 v -16.75 l -15,-7.25 -22.25,1 12.85773,19.55364 -1.60773,17.94636 -5.875,3.375 -5.875,3.375 -0.125,2.625 -0.125,2.625 -6.25,5 3.5,14.5 -3.5,4 -28.75,10 -5.25,5.25 -7.75,18.25 -1.75,17.5 -10.5,4.5 -2.25,11.25 7.75,2 c -1.76194,11.4008 -3.78965,22.77431 -5,34.25 l -17.25,6.25 -15.5,8.75 -15.5,16 -18.25,-3.75 16,-10.25 8,-12.75 -26,-1.75 -37,-24.5 -28.75,-1.5 -1.75,-32.5 c 3.83667,-8.91462 7.79405,-17.66145 11.5,-26.5 l 5.5,-9.25 -7.24783,-2.26176 -7.25217,-4.73824 c -1.13672,-1.23265 -15.22827,-0.71939 -19.25,-1.5 -6.5,-0.5 -8.25,1 -8.25,1 -16.32265,6.49804 -14.23484,5.48714 -30.5,-2 l -11.5,8 -7.25,-13.5 -12.25,-3.25 4.89291,11.14309 -10.64291,-4.89309 -10,6.75 -14,-3 c 7.84654,8.58227 -3.36294,6.11331 -13.69294,3.79008 -4.68057,-1.05266 -9.01812,-2.88773 -11.60506,-2.22908 l -9.80323,6.74983 -3.65977,0.89917 -7.829,-11.109 -23.217,16.206 -33.29309,11.73949 -7.31091,-20.82049 26.445,4.153 21.91,-19.735 2.458,-15.965 -17.718,1.915 -8.891,-7.519 12.156,-9.996 c -1.23697,-12.31235 -2.2572,-24.6421 -3.246,-36.976 l -4.77,-14.386 2.888,-9.545 17.815,7.073 c 7.16936,-9.20909 8.75554,-10.63691 17.014,-22.236 l -9.173,-4.889 6.226,-5.505 34.417,12.915 -3.962,-14.772 12.407,-0.715 c 5.16906,6.13084 10.6229,11.9482 16.358,17.538 l 23.2,-0.27 2.521,-6.308 c -2.603,-7.656 -5.716,-14.555 -8.741,-22.059 -3.539,-0.31 -27.82083,-0.40091 -31.35683,-0.29391 l -36.21299,-9.45291 -32.90318,-19.08018 -7.985,-19.351 -28.229,-9.814 -8.176,-13.083 18.646,-11.354 -12.489,-21.972 3.304,-14.045 9.893,3.62 22.219,-8.091 -20.992,-13.318 -4.866,-9.953 -9.738,6.95 -20.465,-0.714 2.72497,-8.86402 -11.91579,-5.96573 8.43782,-21.99925 9.139,-0.125 -32.119752,-63.7876 38.080752,46.0756 -17.438,-16.44 15.374,2.887 2.454,-9.856 -21.785,0.328 -1.594,-5.885 16.019,-6.979 -2.415,-3.585 -7.734,3.171 -20.961752,-9.7166 c 1.027694,-6.11182 6.668644,-8.96189 6.938752,-9.0424 l 7.978,3.627 c -7.77259,2.3212 5.931,-19.556 5.931,-19.556 l -21.304998,6.571 2.31,-24.881 12.933998,-2.121 -9.526998,-13.057 11.440998,-17.326 c 5.719,0.7 12.744,2.282 18.243,3.969 l 8.22,-3.001 2.291,3.787 4.504,0.241 -1.03,-16.001 23.803,-2.246 c -0.89,-5.331 -2.956,-10.702 -4.264,-15.972 1.256,-3.582 9.871,-13.311 12.426,-18.362 l 9.411,1.373 4.083,17.45 27.733,-0.377 16.763,1.054 -0.735,-7.535 c 8.555,-5.974 17.3,-11.547 26.018,-17.271 l 19.435,-1.548998 c 4.63433,-3.928 9.26867,-7.856 13.903,-11.784 l 5.992,-10.021 13.351,-7.94 -6.246,-5.748 -1.804,-3.713 4.737,-4.485 3.23,1.819 c 3.539,-2.744 7.15,-5.376 10.637,-8.191 l 0.162,-3.61 22.934,2.162 9.517,-9.009 c 1.76697,1.28002 8.95764,3.538951 8.17,3.316 l 3.811,-2.741 11.754,8.494 7.996,10.03 19.065,8.468 11.075,-9.77 c 18.39428,-8.390731 18.88345,-8.30191 26.31,-11.789 l 26.403,-0.332 3.457,7.185 9.939,5.75 14.688,-10.846 10.913,11.214 14.17,-5.912 8.377,7.341 13.008,6.328 1.532,4.007 c 4.88555,1.365718 4.20915,3.724667 4.706,6.924 l 11.319,8.733 2.624,5.52 10.936,11.790998 -2.682,3.182 c 2.258,5.375 4.876,10.606 6.78,16.125 l -3.007,2.621 c 4.675,6.013 12.094,10.991 18.113,15.631 4.522,-0.825 9.036,-1.709 13.594,-2.316 l 11.895,7.63 c 3.081,9.565 5.445,18.525 10.346,27.41 l 10.838,-3.557 -1.02,-2.636 7.25,-1.959 c 1.099,3.828 1.883,7.741 3.059,11.548 l -0.755,3.355 1.623,3.396 4.229,-1.12 c 0.491,1.514 1.066,3.004 1.435,4.556 l 4.041,-0.96 15.784,15.743 c -1.261,2.528 -2.092,5.237 -3.097,7.871 l 3.89,7.991 c 1.974,-0.597 3.99,-1.041 6.004,-1.478 1.977,4.362 3.156,9.054 4.229,13.705 0.72085,2.51085 1.34429,5.04745 1.987,7.579 l 5.417,-0.667 17.653,-1.244 c 1.368,-4.918 2.446,-9.915 3.84,-14.826 l 12.266,5.123 c -0.737,3.974 -1.675,7.953 -1.875,12.002 l -2.598,0.363 -3.833,27.573 2.242,2.345 1.037,10.969 -13.042,20.532 1.711,13.314 7.232,-2.014 c 3.576,8.01667 6.0276,11.43353 11.03465,22.9256 l -19.10965,16.4024 0.627,9.207 31.314,7.065 4.146,7.729 -4.797,4.691 11.21,8.8 c 2.045,-0.283 4.112,-0.336 6.171,-0.459 l 3.278,5.509 0.241,8.492 5.568,0.408 0.82,5.689 10.052,7.063 11.079,14.869 c 5.163,-0.805 10.271,-1.937 15.323,-3.264 l -0.638,8.743 c 1.97,0.122 4.329,-1.43 5.994,-2.363 1.536,3.327 3.332,6.479 5.036,9.719 l 15.713,-4.014 5.462,-8.894 6.952,1.688 2.376,15.085 5.817,5.368 -2.093,4.803 5.214,6.53 18.514,9.269 4.894,-6.116 9.15,1.352 12.804,8.368 3.014,-1.764 c 2.727,1.222 5.538,2.241 8.3,3.377 l 4.86,-2.963 10.108,10.695 c 4.157,1.756 8.94,2.859 13.271,4.218 l 5.35,9.065 4.859,0.488 4.044,14.823 -8.808,5.73 -5.699,1.174 -3.299,5.443 3.689,8.105 -8.727,13.096 0.107,9.983 -10.711,3.226 -5.852,-1.575 -4.612,4.654 -9.186,2.852 6.207,8.556 10.463,7.276 -2.341,3.527 10.287,7.993 2.234,-0.788 32.701,14.109 3.831,11.146 0.39,7.693 c -5.606,1.805 -10.233,2.64 -15.889,3.902 -0.863,1.509 -2.437,2.216 -3.583,3.454 l -12.875,1.426 -2.483,-2.364 -14.719,3.19 -12.272,0.187 -1.952,15.873 -0.65836,6.98937"
           id="path45"
           style="display:inline;stroke:#ffffff;stroke-opacity:1"
           sodipodi:nodetypes="cccccccccccccccccccccccccccccccccccccccccccccccccccccccccccccccccccccccccccccccscccccccccccccccccccccccccccccccccccccccccccccccccccccccccccccccccccccccccccccccccccccccccccccccccccccccccccccccccccccccccccccccccccccccccccccccccccccccccccccccccccccccccccccccccccccccccccccccccccccccccccccccc" />
        <path
           fill-rule="evenodd"
           clip-rule="evenodd"
           fill="none"
           stroke="#646464"
           stroke-width="1.4173"
           stroke-linejoin="round"
           stroke-miterlimit="3.8637"
           d="M 120.5403,235.99163 125.5713,229.77263 130.6173,230.36613 133.2743,234.80463 140.6803,232.14763 C 144.5393,233.03863 156.3833,235.39863 156.3833,235.39863 L 156.9773,242.50763 149.5713,247.55363 151.9463,254.06963 C 151.9463,254.06963 156.9923,253.77263 160.2433,254.96063 163.4933,256.14763 170.6033,257.33563 172.0873,257.03863 173.5713,256.74163 180.6813,256.74163 180.6813,256.74163 L 184.5403,267.39863 177.4303,268.58563 178.3203,271.25763 178.6173,275.69563 182.7583,278.66363 V 284.28863 L 188.0873,284.58563 192.5403,289.63163 187.1973,296.74063 186.6183,302.06963 184.2433,309.47563 185.4303,313.63163 185.7273,316.88163"
           id="path47"
           style="display:inline;stroke:#ffffff;stroke-opacity:1" />
        <path
           fill-rule="evenodd"
           clip-rule="evenodd"
           fill="none"
           stroke="#646464"
           stroke-width="1.4173"
           stroke-linejoin="round"
           stroke-miterlimit="3.8637"
           d="M 161.25184,338.95936 167.0553,328.14663 C 167.0553,328.14663 167.9603,328.75463 170.0233,329.92763 172.0863,331.10063 172.9773,331.39763 172.9773,331.39763 L 174.4613,329.92763 172.3833,328.44363 173.5703,326.36563 C 173.5703,326.36563 178.8983,326.95963 180.0863,325.17763 181.2733,323.39663 182.7573,320.73963 182.7573,320.73963 L 183.3513,317.77163 186.8983,315.99063 190.7573,318.36563 H 194.8983 L 214.1633,311.55363 216.5383,307.39763 210.8983,291.39763 206.7573,288.74063 214.4603,280.44363 222.4603,279.84963 228.0853,285.77163 H 239.6473 L 245.5693,288.14663"
           id="path49"
           style="stroke:#ffffff;stroke-opacity:1" />
        <path
           fill-rule="evenodd"
           clip-rule="evenodd"
           fill="none"
           stroke="#646464"
           stroke-width="1.4173"
           stroke-linejoin="round"
           stroke-miterlimit="3.8637"
           d="M 250.6383,158.64163 260.6813,150.95963 278.4623,149.77163 298.6183,157.77163 310.4623,168.14663 V 177.03763 L 317.2753,185.33463 C 321.94684,180.15796 327.92924,177.74974 334.1653,174.95963 336.55211,178.6216 341.41457,174.04572 344.5403,172.58463 L 344.8373,176.14663 351.6493,174.06863 352.8373,170.80363 359.9463,169.63063 362.6173,188.28763 373.8673,191.84963 372.6803,178.50663 383.0553,169.33363 383.6493,176.73963 388.9783,172.28663 392.5403,174.95863 393.4303,179.99063"
           id="path51"
           style="stroke:#ffffff;stroke-opacity:1" />
        <polyline
           fill-rule="evenodd"
           clip-rule="evenodd"
           fill="none"
           stroke="#646464"
           stroke-width="1.4173"
           stroke-linejoin="round"
           stroke-miterlimit="3.8637"
           points="  341.285,217.938 366.457,207.564 396.083,207.267 411.331,203.126 "
           id="polyline53"
           transform="translate(75.863302,-11.572368)"
           style="stroke:#ffffff;stroke-opacity:1" />
        <path
           fill-rule="evenodd"
           clip-rule="evenodd"
           fill="none"
           stroke="#646464"
           stroke-width="1.4173"
           stroke-linejoin="round"
           stroke-miterlimit="3.8637"
           d="M 312.65591,463.97884 315.0083,450.56963 318.5083,441.56963 318.0083,427.81963 303.5083,428.06963 299.5083,418.31963 289.0083,418.56963 V 414.31963 L 302.2583,400.31963 311.2583,387.81963 318.2583,385.06963 326.0083,375.81963 324.5083,365.06963 319.0083,359.81963 303.5083,359.56963 296.5083,366.31963 291.7583,354.56963 274.3363,354.21063 271.9463,350.06963"
           id="path55"
           style="stroke:#ffffff;stroke-opacity:1" />
        <path
           fill-rule="evenodd"
           clip-rule="evenodd"
           fill="none"
           stroke="#646464"
           stroke-width="1.4173"
           stroke-linejoin="round"
           stroke-miterlimit="3.8637"
           d="M 271.3833,338.80363 H 267.7903 L 258.0233,328.74063 253.5713,329.92863 250.8993,326.96063 247.0553,326.06963 252.0873,315.99163 258.3203,310.66263 256.5393,308.88163 259.1963,306.80363 255.6493,301.77163 253.2743,304.44263 H 241.7263 L 239.6483,295.25563 245.5703,288.14563 250.6163,282.50563 242.8983,274.50563 H 237.2733 L 236.0853,272.44263 H 233.7253 L 232.2413,269.77163 242.6163,260.28763 226.0223,255.84963 234.0213,246.06863 244.69192,253.33717 246.7563,251.39763 242.3183,245.17863 274.6153,216.44363"
           id="path59"
           style="stroke:#ffffff;stroke-opacity:1" />
        <path
           fill="none"
           stroke="#646464"
           stroke-width="1.4173"
           stroke-linejoin="round"
           stroke-miterlimit="3.8637"
           d="M 516.6023,224.39063 512.7583,219.31963 508.0783,218.74263 C 508.2683,215.12063 508.2293,212.01963 507.5423,210.92663 L 495.5903,199.43463 487.1943,191.55363 491.4643,184.32663 501.7583,187.81963 501.9243,173.31563 489.9773,154.44563 492.6813,132.94863 485.5723,133.92963 474.0163,121.34963 474.8823,114.67263 482.7053,114.60463 489.1133,104.14763 488.0103,98.396632 478.0743,91.666632 477.1573,81.663632 486.8733,73.768632 481.7983,66.984632 480.1393,57.428632"
           id="path61"
           style="stroke:#ffffff;stroke-opacity:1" />
        <path
           fill-rule="evenodd"
           clip-rule="evenodd"
           fill="none"
           stroke="#646464"
           stroke-width="1.4173"
           stroke-linejoin="round"
           stroke-miterlimit="3.8637"
           d="M 400.5083,158.06963 439.5083,152.56963 454.7583,146.56963 456.5083,149.06963 483.14481,131.68312"
           id="path63"
           style="stroke:#ffffff;stroke-opacity:1" />
        <path
           fill-rule="evenodd"
           clip-rule="evenodd"
           fill="none"
           stroke="#646464"
           stroke-width="1.4173"
           stroke-linejoin="round"
           stroke-miterlimit="3.8637"
           d="M 197.5873,452.58463 200.8373,446.06963 201.1343,439.25763 213.2753,428.88263 221.2753,430.36663 222.4633,418.80463 241.7293,401.33463 241.1353,391.85063 256.2453,387.69563 256.5423,380.28863"
           id="path65"
           style="mix-blend-mode:normal;stroke:#ffffff;stroke-opacity:1" />
        <path
           fill-rule="evenodd"
           clip-rule="evenodd"
           fill="none"
           stroke="#646464"
           stroke-width="2.126"
           stroke-linejoin="round"
           stroke-miterlimit="3.8637"
           d="M 147.4933,353.33463 V 358.36663 L 149.5713,365.47563 155.1963,364.28763 156.0863,361.92763 160.5393,362.50663 162.3203,367.55263 173.2743,368.14563 V 377.92663 L 184.2423,377.33263 189.8673,373.17663 201.1323,376.73863 200.5383,386.20863 202.8983,386.50563 206.4603,383.25563 223.6473,380.58363 227.1943,371.99063 235.7883,384.73963 246.7563,379.39663 256.5383,380.28663 260.9763,377.62963 261.5703,375.25463 257.1323,370.80163 256.5393,357.47263 271.9453,350.06663 270.1643,344.73763 271.3523,338.80063 274.0233,339.09763 286.1643,332.87863 295.3523,339.39463 308.9773,331.98863 309.2743,320.73763 313.4293,317.17563 H 324.3833 L 322.3203,304.14363 331.7903,283.09763 C 331.7903,283.09763 336.8223,279.55063 338.8993,278.65963 340.9773,277.76863 341.2743,276.87863 340.6803,275.69163 340.0863,274.50363 339.1963,270.95663 339.1963,270.95663 L 321.7263,257.62763 328.2423,247.84663 313.7263,237.76763 298.3203,246.06463 284.3833,234.50263 274.6163,216.43963 C 274.6163,216.43963 269.5703,209.33063 268.6793,208.43963 267.7883,207.54963 263.6473,204.87763 263.6473,204.87763 L 261.5693,203.98763 255.6473,197.17463 250.3183,182.65863 253.8653,178.20563 248.2403,160.43863 250.8973,158.06363 251.4913,139.68863 245.8663,141.46963 231.9753,125.25663"
           id="path67"
           style="stroke:#ffffff;stroke-opacity:1" />
        <path
           fill-rule="evenodd"
           clip-rule="evenodd"
           fill="none"
           stroke="#646464"
           stroke-width="2.126"
           stroke-linejoin="round"
           stroke-miterlimit="3.8637"
           d="M 420.9783,231.55363 416.2433,219.69463 417.1333,206.36563 405.2753,210.20963 404.0873,195.69463 393.4303,179.99163 405.2593,168.31963 400.5093,158.06963 400.0093,135.56963 418.7593,98.319632 421.0093,78.819632 429.7593,66.319632 419.22348,54.855268"
           id="path69"
           style="stroke:#ffffff;stroke-opacity:1" />
        <path
           fill-rule="evenodd"
           clip-rule="evenodd"
           fill="none"
           stroke="#646464"
           stroke-width="2.126"
           stroke-linejoin="round"
           stroke-miterlimit="3.8637"
           d="M 331.7903,283.10063 360.5403,298.50663 369.7273,299.69463 378.3213,294.36563 388.0873,263.25663 389.5713,259.39763 386.6173,244.88163 399.3523,242.80363 411.7903,236.58463 C 411.7903,236.58463 415.9463,233.03763 416.8363,232.14663 417.7263,231.25663 418.8993,231.25663 420.9773,231.55363 423.0553,231.84963 446.4613,231.25663 446.4613,231.25663 L 461.8673,238.06863 H 477.5713 L 505.6353,253.50163 513.1973,248.88963 507.2163,230.01563 516.6023,224.38763 549.2583,222.31663 559.7583,220.81663 568.2583,226.06663 573.0083,222.56663 H 578.2583 V 229.06663 L 581.5083,233.31663 C 581.5083,233.31663 583.0083,237.56663 584.2583,238.81663 585.5083,240.06663 586.7583,242.81663 586.7583,243.81663 586.7583,244.81663 588.2583,251.56663 588.2583,251.56663 L 597.5083,257.56663 600.0083,263.81663 595.0083,268.81663 594.5083,272.56663 589.2583,269.81663 579.2583,277.06663 578.0083,270.81663 574.2583,275.06663 575.7583,280.31663 581.7583,284.56663 578.7583,289.56663 H 573.2583 L 569.0083,298.56663 578.5173,303.12963 583.0083,304.56663 586.0083,302.06663 590.5083,304.31663 607.0083,296.81663 634.0083,298.81663 627.5083,278.31663 630.0083,267.06663 634.0083,266.81663 C 634.0083,266.81663 637.7583,263.81663 638.5083,262.56663 639.2583,261.31663 641.7583,256.81663 641.7583,256.81663 L 663.7583,258.81663 664.2583,239.06663 673.2583,229.31663 670.7583,218.56663 675.6703,216.60463"
           id="path71"
           style="stroke:#ffffff;stroke-opacity:1" />
        <path
           fill-rule="evenodd"
           clip-rule="evenodd"
           fill="none"
           stroke="#646464"
           stroke-width="1.4173"
           stroke-linejoin="round"
           stroke-miterlimit="3.8637"
           d="M 512.7583,219.31963 539.5083,213.31963 540.7583,184.31963 544.5083,178.06963 559.2583,171.31963 556.5083,155.06963 559.7583,151.81963 H 564.5083 V 148.31963 L 561.0083,144.31963 568.2583,133.81963 583.7583,142.06963 592.5573,139.65463"
           id="path73"
           style="stroke:#ffffff;stroke-opacity:1" />
        <path
           fill-rule="evenodd"
           clip-rule="evenodd"
           fill="none"
           stroke="#646464"
           stroke-width="1.4173"
           stroke-linejoin="round"
           stroke-miterlimit="3.8637"
           d="M 479.73577,127.45598 492.0083,124.31963 507.5083,125.56963 524.0083,131.56963 546.2583,130.06963 V 124.31963 L 564.0083,110.81963 570.6723,105.27863"
           id="path75"
           style="stroke:#ffffff;stroke-opacity:1" />
        <path
           fill-rule="evenodd"
           clip-rule="evenodd"
           fill="none"
           stroke="#646464"
           stroke-width="2.126"
           stroke-linejoin="round"
           stroke-miterlimit="3.8637"
           d="M 546.23544,518.02424 C 546.32444,517.88524 550.5883,512.74563 550.7713,512.01063 L 550.3403,498.80863 560.9833,482.56963 554.3433,463.83763 539.8163,450.91063 540.9833,431.07063 539.1013,419.87663 C 535.51283,416.55667 531.72071,413.46921 527.9823,410.32163 L 525.6423,401.48163 532.7323,388.32163 529.0073,385.07163 H 514.6323 L 512.7573,377.94663 517.7433,369.45663 C 514.5773,364.61718 510.86231,359.8234 507.0923,354.80063 L 495.8393,342.78163 V 342.78163 C 495.4203,340.49163 493.0073,340.82163 490.7573,340.82163 L 484.20403,352.28508 478.2573,348.57163 480.0073,344.32163 482.5163,335.88463 480.0073,325.57163 487.0073,324.32163 502.6263,312.11663 498.8983,309.63563 482.4623,310.88663 478.1633,303.64763 489.9193,296.31763 491.4313,291.48463 485.7573,286.82163 477.7573,293.82163 471.7573,289.57163 474.5073,283.57163 C 475.06824,282.34776 496.5763,279.46963 496.5763,279.46963 L 491.0103,274.14363 490.7233,273.83063 490.2203,273.34763 489.9663,257.06863 505.6343,253.50563"
           id="path77"
           sodipodi:nodetypes="cccccccccccccccccsccccccccccccccccscccccc"
           style="stroke:#ffffff;stroke-opacity:1" />
        <path
           fill-rule="evenodd"
           clip-rule="evenodd"
           fill="none"
           stroke="#646464"
           stroke-width="1.4173"
           stroke-linejoin="round"
           stroke-miterlimit="3.8637"
           d="M 480.0083,344.31963 454.7583,350.56963 436.0083,335.56963 418.7583,327.06963 419.7583,318.06963 416.0083,315.31963 428.7583,300.06963 415.0083,268.81963 388.0873,263.25763"
           id="path79"
           style="stroke:#ffffff;stroke-opacity:1" />
        <line
           fill-rule="evenodd"
           clip-rule="evenodd"
           fill="none"
           stroke="#646464"
           stroke-width="1.4173"
           stroke-linejoin="round"
           stroke-miterlimit="3.8637"
           x1="450.2583"
           y1="347.81964"
           x2="433.5083"
           y2="365.06964"
           id="line81"
           style="stroke:#ffffff;stroke-opacity:1" />
        <path
           fill-rule="evenodd"
           clip-rule="evenodd"
           fill="none"
           stroke="#646464"
           stroke-width="1.4173"
           stroke-linejoin="round"
           stroke-miterlimit="3.8637"
           d="M 316.9723,466.34163 331.7593,457.06963 331.0093,443.06963 341.0093,443.31963 339.0093,433.06963 355.5093,432.06963 351.2593,407.56963 343.0093,395.06963 338.5093,394.81963 318.2593,385.06963"
           id="path83"
           style="stroke:#ffffff;stroke-opacity:1" />
        <path
           fill-rule="evenodd"
           clip-rule="evenodd"
           fill="none"
           stroke="#646464"
           stroke-width="1.4173"
           stroke-linejoin="round"
           stroke-miterlimit="3.8637"
           d="M 343.0083,395.06963 346.5083,389.31963 365.2583,382.56963 369.7583,387.81963 384.0083,372.06963 389.0083,353.31963"
           id="path85"
           style="stroke:#ffffff;stroke-opacity:1" />
        <path
           fill-rule="evenodd"
           clip-rule="evenodd"
           fill="none"
           stroke="#646464"
           stroke-width="1.4173"
           stroke-linejoin="round"
           stroke-miterlimit="3.8637"
           d="M 369.7583,387.81963 399.2583,385.31963 403.7583,396.06963 C 403.7583,396.06963 407.0083,399.56963 408.0083,400.56963 409.0083,401.56963 408.2583,403.81963 409.2583,404.81963 L 413.7583,409.31963 416.0083,410.56963 414.2583,419.56963 424.5083,426.06963 438.5083,413.81963 446.2583,403.31963 442.0083,400.06963 445.2583,391.81963 453.5083,371.81963 445.7583,367.06963 433.5083,365.06963 425.0083,359.56963 404.0083,363.56963 389.0083,353.31963 374.5083,345.31963 366.5083,299.31963"
           id="path87"
           style="stroke:#ffffff;stroke-opacity:1" />
        <path
           fill-rule="evenodd"
           clip-rule="evenodd"
           fill="none"
           stroke="#646464"
           stroke-width="1.4173"
           stroke-linejoin="round"
           stroke-miterlimit="3.8637"
           d="M 438.5083,413.81963 456.5083,422.81963 452.2583,429.31963 463.0083,437.81963 474.7583,440.56963 478.5083,444.06963 480.7583,463.06963 488.0083,462.31963 486.7583,471.31963 491.0083,474.56963 494.5083,491.81963 503.5083,489.56963 512.0083,499.68345"
           id="path89"
           style="stroke:#ffffff;stroke-opacity:1" />
        <path
           fill-rule="evenodd"
           clip-rule="evenodd"
           fill="none"
           stroke="#646464"
           stroke-width="1.4173"
           stroke-linejoin="round"
           stroke-miterlimit="3.8637"
           d="M 476.7583,442.56963 486.7583,439.56963 H 500.2583 L 514.5083,428.81963 520.2583,429.56963 521.5083,433.56963 540.9833,431.07063"
           id="path91"
           style="stroke:#ffffff;stroke-opacity:1" />
        <path
           fill-rule="evenodd"
           clip-rule="evenodd"
           fill="none"
           stroke="#646464"
           stroke-width="1.4173"
           stroke-linejoin="round"
           stroke-miterlimit="3.8637"
           d="M 507.2583,356.31963 520.0083,348.06963 553.7583,351.31963 554.7583,346.31963 547.7583,336.06963 569.0083,298.56963"
           id="path93"
           style="stroke:#ffffff;stroke-opacity:1" />
        <path
           fill-rule="evenodd"
           clip-rule="evenodd"
           fill="none"
           stroke="#646464"
           stroke-width="1.4173"
           stroke-linejoin="round"
           stroke-miterlimit="3.8637"
           d="M 634.0083,298.81963 638.7583,292.56963 648.0083,295.31963 647.0083,298.81963 672.0083,311.56963 672.7583,306.81963 680.0083,303.06963 684.7583,303.31963 681.0083,288.31963 705.5083,282.06963 701.0083,265.06963 C 701.0083,265.06963 705.5083,262.56963 708.0083,263.06963 710.5083,263.56963 711.7583,264.06963 712.7583,264.31963 713.7583,264.56963 718.7583,264.73863 718.7583,264.73863"
           id="path95"
           style="stroke:#ffffff;stroke-opacity:1" />
        <path
           fill-rule="evenodd"
           clip-rule="evenodd"
           fill="none"
           stroke="#646464"
           stroke-width="1.4173"
           stroke-linejoin="round"
           stroke-miterlimit="3.8637"
           d="M 590.5083,304.31963 599.0083,322.56963 621.5083,350.56963 613.7583,353.81963 614.5083,360.31963 623.5083,359.31963 626.2583,364.56963 619.0083,368.31963 627.2583,372.56963 639.7583,392.81963 654.5083,384.56963 658.0083,389.31963 666.2583,384.56963 672.5083,375.56963 682.2583,382.56963"
           id="path97"
           sodipodi:nodetypes="ccccccccccccccc"
           style="stroke:#ffffff;stroke-opacity:1" />
        <path
           fill-rule="evenodd"
           clip-rule="evenodd"
           fill="none"
           stroke="#646464"
           stroke-width="2.126"
           stroke-linejoin="round"
           stroke-miterlimit="3.8637"
           d="M 597.2683,542.13263 597.7683,533.13263 C 603.54407,525.72708 607.15934,519.52063 612.7583,512.06963 L 611.2583,499.81963 618.0083,489.31963 623.5083,478.56963 629.4853,486.54963 635.5083,480.56963 649.2583,482.56963 649.0083,471.81963 656.2583,471.06963 663.5083,475.81963 665.7583,473.06963 684.5083,482.56963 681.7583,487.31963 694.7583,494.06963 699.8013,501.62263 710.0083,480.31963 715.2583,481.81963 720.2583,475.81963 723.5083,477.56963 741.0083,460.56963 729.7583,452.56963 744.2583,448.56963 754.0083,439.81963 769.5083,433.06963 789.7773,428.38663"
           id="path99"
           style="stroke:#ffffff;stroke-opacity:1" />
        <path
           fill-rule="evenodd"
           clip-rule="evenodd"
           fill="none"
           stroke="#646464"
           stroke-width="1.4173"
           stroke-linejoin="round"
           stroke-miterlimit="3.8637"
           d="M 694.7583,494.06963 688.2583,483.06963 688.7583,474.06963 687.2583,466.31963 695.0083,448.56963 679.7583,442.06963 H 670.7583 L 675.2583,431.81963 675.7583,427.56963 678.0083,427.06963 681.7583,429.81963 684.5083,427.31963 679.7583,423.06963 680.5083,420.06963 682.5083,418.81963 680.5083,408.31963 682.0083,402.31963 673.5083,393.31963 682.2583,382.56963 689.2583,377.06963 691.2583,372.06963 681.5083,369.06963 685.2583,360.56963 701.0083,354.06963 705.7583,360.56963 710.4903,358.42263"
           id="path101"
           sodipodi:nodetypes="cccccccccccccccccccccccccc"
           style="stroke:#ffffff;stroke-opacity:1" />
        <path
           fill-rule="evenodd"
           clip-rule="evenodd"
           fill="none"
           stroke="#646464"
           stroke-width="1.4173"
           stroke-linejoin="round"
           stroke-miterlimit="3.8637"
           d="M 622.0083,583.56963 631.2583,572.56963 C 631.2583,572.56963 642.7583,572.06963 644.5083,571.31963 646.2583,570.56963 659.5083,568.56963 659.5083,568.56963"
           id="path103"
           style="stroke:#ffffff;stroke-opacity:1" />
        <path
           fill-rule="evenodd"
           clip-rule="evenodd"
           fill="none"
           stroke="#646464"
           stroke-width="1.4173"
           stroke-linejoin="round"
           stroke-miterlimit="3.8637"
           d="M 615.5083,494.56963 628.2583,497.81963 655.7583,527.31963 647.0083,544.81963 659.0083,564.06963 659.5083,568.56963 666.7583,585.56963 673.7583,586.81963 694.5083,575.56963 689.0083,564.81963 701.7583,557.31963 712.2583,557.56963 721.2583,551.06963 720.2583,542.56963 734.2583,510.31963 726.7583,507.56963 723.2583,500.81963 714.7583,493.81963 719.2583,484.81963 723.5083,477.56963"
           id="path105"
           style="stroke:#ffffff;stroke-opacity:1" />
        <polyline
           fill-rule="evenodd"
           clip-rule="evenodd"
           fill="none"
           stroke="#646464"
           stroke-width="1.4173"
           stroke-linejoin="round"
           stroke-miterlimit="3.8637"
           points="  665.145,472.142 742.895,521.642 744.145,532.892 "
           id="polyline107"
           transform="translate(75.863302,-11.572368)"
           style="stroke:#ffffff;stroke-opacity:1" />
        <polyline
           fill-rule="evenodd"
           clip-rule="evenodd"
           fill="none"
           stroke="#646464"
           stroke-width="1.4173"
           stroke-linejoin="round"
           stroke-miterlimit="3.8637"
           points="  778.866,473.25 779.645,477.392 782.645,497.392 744.145,532.892 742.145,534.392 742.145,541.642 744.395,544.392 742.645,546.892   736.145,581.392 736.395,584.892 734.895,591.392 738.145,594.142 736.395,596.392 739.145,598.642 728.145,617.892   752.895,636.642 758.895,629.892 779.145,647.142 775.645,651.642 787.895,661.392 793.895,653.142 804.895,661.392   798.895,672.392 802.645,680.142 "
           id="polyline109"
           transform="translate(75.863302,-11.572368)"
           style="display:inline;stroke:#ffffff;stroke-opacity:1" />
        <path
           fill-rule="evenodd"
           clip-rule="evenodd"
           fill="none"
           stroke="#646464"
           stroke-width="1.4173"
           stroke-linejoin="round"
           stroke-miterlimit="3.8637"
           d="M 838.5083,621.56963 843.2583,615.31963 826.7583,598.56963 829.0083,596.31963 836.0083,602.31963 839.5083,592.56963 859.2583,596.56963 859.5083,602.56963 869.5083,606.81963 876.0083,596.56963 883.2583,596.81963 884.5083,591.31963 892.5083,592.06963 899.2583,575.06963 896.0083,571.31963 900.8023,565.17863"
           id="path111"
           style="stroke:#ffffff;stroke-opacity:1" />
        <polyline
           fill-rule="evenodd"
           clip-rule="evenodd"
           fill="none"
           stroke="#646464"
           stroke-width="1.4173"
           stroke-linejoin="round"
           stroke-miterlimit="3.8637"
           points="  636.395,569.142 648.645,581.142 651.895,579.142 667.145,602.142 679.895,591.142 "
           id="polyline113"
           transform="translate(75.863302,-11.572368)"
           style="stroke:#ffffff;stroke-opacity:1" />
        <path
           fill-rule="evenodd"
           clip-rule="evenodd"
           fill="none"
           stroke="#646464"
           stroke-width="1.4173"
           stroke-linejoin="round"
           stroke-miterlimit="3.8637"
           d="M 722.0083,731.81963 C 722.0083,731.81963 721.5083,726.31963 721.5083,725.31963 721.5083,724.31963 721.0083,717.56963 721.0083,717.56963 H 728.5083 C 729.5083,717.56963 730.5083,716.06963 731.0083,714.81963 731.5083,713.56963 734.7583,706.31963 734.7583,706.31963 L 741.5083,698.81963 737.7583,674.81963 734.2583,671.06963 728.0083,671.56963 726.2583,656.81963 719.5083,656.06963 722.7583,650.81963 743.5083,635.81963 768.7583,625.31963 771.0083,622.06963 759.0083,611.06963 755.7583,579.56963 751.5083,574.31963 754.7583,569.31963 774.0083,587.81963 777.5083,599.56963 787.7583,586.56963 793.5083,590.81963 793.7583,593.56963 806.2583,601.56963"
           id="path115"
           style="stroke:#ffffff;stroke-opacity:1" />
        <path
           fill-rule="evenodd"
           clip-rule="evenodd"
           fill="none"
           stroke="#646464"
           stroke-width="2.126"
           stroke-linejoin="round"
           stroke-miterlimit="3.8637"
           d="M 276.6823,498.28163 277.0083,504.06963 280.7583,507.56963 283.2583,514.06963 287.5083,508.81963 290.7583,503.31963 300.5083,499.06963 311.2583,503.81963 326.7583,506.56963 337.5083,513.56963 345.5083,510.06963 369.5083,509.56963 388.5083,507.31963 413.2583,508.06963 422.5083,505.81963 427.4053,508.45263 432.7583,510.81963 436.7583,509.06963 443.5083,509.31963 451.7583,508.81963 462.7133,500.92763 467.2743,488.81963 475.5083,483.31963 478.2583,491.31963 472.5773,503.82863 521.4083,497.70563 542.0433,512.01963 556.5463,532.70763 560.0183,535.88263"
           id="path117"
           style="stroke:#ffffff;stroke-opacity:1" />
        <path
           fill-rule="evenodd"
           clip-rule="evenodd"
           fill="none"
           stroke="#646464"
           stroke-width="1.4173"
           stroke-linejoin="round"
           stroke-miterlimit="3.8637"
           d="M 392.5243,475.81963 393.5083,486.56963 392.7583,498.56963 394.7583,507.56963"
           id="path119"
           style="stroke:#ffffff;stroke-opacity:1" />
        <path
           fill-rule="evenodd"
           clip-rule="evenodd"
           fill="none"
           stroke="#646464"
           stroke-width="1.4173"
           stroke-linejoin="round"
           stroke-miterlimit="3.8637"
           d="M 427.4373,508.45163 C 427.4373,508.45163 428.5083,504.56863 428.5083,503.06863 L 432.7583,497.81863 432.5083,482.06863 438.7533,475.40563"
           id="path121"
           style="stroke:#ffffff;stroke-opacity:1" />
        <path
           fill-rule="evenodd"
           clip-rule="evenodd"
           fill="none"
           stroke="#646464"
           stroke-width="1.4173"
           stroke-linejoin="round"
           stroke-miterlimit="3.8637"
           d="M 303.74017,500.33106 299.2583,489.06963 292.2583,482.81963 293.2583,481.31963 297.7583,485.31963 299.0083,483.06963 297.0083,479.06963 297.5083,473.81963 304.5083,468.31963 306.5283,461.12263 316.9723,466.34063 C 319.2993,470.21863 319.8623,477.71563 323.9253,478.96563 L 374.7673,472.24763 C 384.07656,473.92742 391.33178,475.76076 400.8113,476.22663 L 413.3443,468.06863 412.3913,463.18363 428.4513,460.72863 C 434.6663,463.53863 435.5483,468.47263 438.0383,474.02063 L 444.3363,484.47763 456.2583,484.56963 467.2583,488.81963"
           id="path123"
           style="stroke:#ffffff;stroke-opacity:1" />
        <path
           fill-rule="evenodd"
           clip-rule="evenodd"
           fill="none"
           stroke="#646464"
           stroke-width="1.4173"
           stroke-linejoin="round"
           stroke-miterlimit="3.8637"
           d="M 200.6783,609.98563 201.7593,608.06963 207.0093,608.31963 207.2593,599.81963 219.2593,599.06963 253.2593,599.56963 256.5093,592.06963 245.2593,568.56963 240.7593,566.81963 242.5093,561.06963 251.0093,560.06963 255.2593,555.56963 264.5093,549.56963 283.0093,551.81963 295.0093,506.31963 290.7593,503.31963"
           id="path125"
           style="stroke:#ffffff;stroke-opacity:1" />
        <path
           fill-rule="evenodd"
           clip-rule="evenodd"
           fill="none"
           stroke="#646464"
           stroke-width="1.4173"
           stroke-linejoin="round"
           stroke-miterlimit="3.8637"
           d="M 379.39321,623.48972 386.5093,628.31963 390.2593,628.81963 392.2593,624.06963 395.0093,625.56963 405.7593,601.81963 393.2593,600.56963 387.2593,592.81963 385.7593,583.31963 382.0093,583.06963 381.5093,589.56963 370.0093,584.06963 362.0093,582.81963 361.0093,576.56963 369.0093,574.31963 371.5093,539.31963 375.7593,527.81963 370.7593,509.06963"
           id="path127"
           style="stroke:#ffffff;stroke-opacity:1" />
        <path
           fill-rule="evenodd"
           clip-rule="evenodd"
           fill="none"
           stroke="#646464"
           stroke-width="1.4173"
           stroke-linejoin="round"
           stroke-miterlimit="3.8637"
           d="M 375.7593,527.81963 377.0083,533.56963 376.5083,546.31963 381.5083,548.06963 379.5083,569.81963 387.2583,567.31963 388.2583,562.56963 387.2583,556.56963 390.2583,552.81963 390.0083,546.81963 393.0083,545.81963 394.5083,538.56963 399.2583,541.06963 400.5083,548.31963 396.2583,564.56963 C 405.60435,561.10175 414.97497,557.70224 424.2583,554.06963 L 434.0083,560.06963 438.2583,559.81963 442.7583,554.81963 V 548.81963 L 450.2583,550.06963 458.5083,556.56963 462.98139,556.73036"
           id="path129"
           style="stroke:#ffffff;stroke-opacity:1" />
        <path
           fill-rule="evenodd"
           clip-rule="evenodd"
           fill="none"
           stroke="#646464"
           stroke-width="1.4173"
           stroke-linejoin="round"
           stroke-miterlimit="3.8637"
           d="M 511.2683,642.38263 504.5093,640.81963 497.0093,623.56963 491.2593,612.06963 485.2593,613.31963 484.7593,619.56963 477.5093,620.06963 477.2593,611.81963 479.5093,611.31963 480.0093,609.06963 467.0093,599.06963 466.5093,584.81963 469.5093,579.56963 471.7593,576.31963 C 471.7593,576.31963 478.2593,574.31963 480.5093,574.31963 482.7593,574.31963 491.7593,573.31963 491.7593,573.31963 L 496.5093,567.56963 506.0093,557.56963 505.7593,564.31963 C 505.7593,564.31963 518.7593,566.06963 521.5093,566.06963 524.2593,566.06963 531.7593,565.81963 531.7593,565.81963 L 535.0093,567.81963 539.7593,564.31963 539.2593,549.31963 537.5093,546.06963 556.5463,532.70763"
           id="path131"
           style="stroke:#ffffff;stroke-opacity:1" />
        <path
           fill-rule="evenodd"
           clip-rule="evenodd"
           fill="none"
           stroke="#646464"
           stroke-width="1.4173"
           stroke-linejoin="round"
           stroke-miterlimit="3.8637"
           d="M 471.7583,576.31963 470.2583,571.06963 464.7583,574.81963 463.7583,562.81963 461.5083,544.31963 453.7583,532.56963 454.7583,526.06963 446.2583,513.56963 443.5083,509.31963"
           id="path133"
           style="stroke:#ffffff;stroke-opacity:1" />
        <path
           fill-rule="evenodd"
           clip-rule="evenodd"
           fill="none"
           stroke="#646464"
           stroke-width="1.4173"
           stroke-linejoin="round"
           stroke-miterlimit="3.8637"
           d="M 431.0183,714.38263 433.0093,700.31963 425.0093,694.56963 422.0093,687.81963 424.0093,686.56963 429.7593,688.31963 436.0093,688.81963 435.7593,685.81963 430.2593,685.31963 430.7593,681.81963 426.0093,677.31963 421.2593,674.81963 422.5093,671.06963 431.2593,668.81963 435.5093,666.31963 434.2593,664.06963 430.0093,666.31963 427.5093,663.31963 440.2593,649.81963 437.5093,647.06963 422.2593,646.31963 C 424.6648,641.62785 426.53095,636.69955 428.5093,631.81963 L 443.7593,629.81963 443.5093,626.81963 433.5093,624.56963 433.0093,612.31963 446.7593,604.56963 460.2593,604.06963 C 461.83234,601.07503 463.65301,599.68448 467.0093,599.06963"
           id="path135"
           style="stroke:#ffffff;stroke-opacity:1" />
      </g>
    </g>
  </g>
</svg>
